<?xml version="1.0" encoding="UTF-8"?>
<svg version="1.1" xmlns="http://www.w3.org/2000/svg" width="764" height="268">
<path d="M0 0 C252.12 0 504.24 0 764 0 C764 88.44 764 176.88 764 268 C511.88 268 259.76 268 0 268 C0 179.56 0 91.12 0 0 Z " fill="#FEFCFC" transform="translate(0,0)"/>
<path d="M0 0 C2.421875 2.1796875 2.421875 2.1796875 4.75 4.875 C5.52859375 5.75929688 6.3071875 6.64359375 7.109375 7.5546875 C10.38120625 11.78643618 10.29583092 15.85069305 10 21 C9.71102706 22.33391974 9.41940985 23.6672697 9.125 25 C8.57343373 28.71387958 9.61280467 30.44953612 11.8125 33.4375 C13.50821215 35.49571593 14.6126685 36.80633425 17 38 C17 38.66 17 39.32 17 40 C21.10048007 41.62112003 23.73753575 42.33963162 28 41 C28.33 40.67 28.66 40.34 29 40 C36.42442972 38.73924778 40.44569333 41.77681726 46.4609375 45.95703125 C49.72928731 48.58679579 50.89926907 50.11021012 51.375 54.3125 C50.92586212 58.72902247 49.88924409 60.65455947 47 64 C42.57988628 67.0137139 38.26206825 67.92917562 33 67 C30.18816916 65.89158204 27.59457128 64.54570204 25 63 C25 62.34 25 61.68 25 61 C24.195625 60.79375 23.39125 60.5875 22.5625 60.375 C15.22499171 57.54297925 9.46825504 52.71930208 3.6875 47.5 C3.18395996 47.04955322 2.68041992 46.59910645 2.16162109 46.13500977 C-0.35165472 43.80844643 -2.27406716 41.58519565 -4.16796875 38.71875 C-5.7761615 35.73571268 -5.7761615 35.73571268 -9 35 C-9.94921875 32.49609375 -9.94921875 32.49609375 -10.6875 29.4375 C-11.06455078 27.91962891 -11.06455078 27.91962891 -11.44921875 26.37109375 C-11.63097656 25.58863281 -11.81273438 24.80617187 -12 24 C-12.66 24 -13.32 24 -14 24 C-15.8213159 17.62539436 -17.35008291 11.71272801 -15 5.25 C-10.98334906 0.73126769 -5.96971831 -2.13073023 0 0 Z " fill="#D65466" transform="translate(119,112)"/>
<path d="M0 0 C3.1875 1.9375 3.1875 1.9375 5 5 C5.61620786 9.10557764 5.27424328 12.85316446 4.3125 16.875 C4.209375 17.57625 4.10625 18.2775 4 19 C4.474375 19.433125 4.94875 19.86625 5.4375 20.3125 C7.62656054 22.67668539 7.47264832 24.87234783 7.36328125 27.9921875 C6.79664038 31.12394457 5.27320844 32.86050971 3 35 C2.34 35 1.68 35 1 35 C1 35.66 1 36.32 1 37 C-3.09235283 38.36411761 -6.81947478 38.84676331 -10.94140625 37.24609375 C-13.5376532 35.86395811 -15.63907987 34.47076539 -17.4375 32.125 C-18.51859961 28.04084591 -18.47447109 25.06755995 -16.75 21.1875 C-15 19 -15 19 -12.8125 18.1875 C-12.214375 18.125625 -11.61625 18.06375 -11 18 C-11.68382061 15.00860209 -11.68382061 15.00860209 -13.5625 13.8125 C-15.53995886 11.31918231 -15.48825978 9.04687719 -15.328125 5.94140625 C-15 4 -15 4 -13.6875 1.5 C-9.2806204 -0.95965373 -4.91080934 -0.81362522 0 0 Z " fill="#DD7E80" transform="translate(631,162)"/>
<path d="M0 0 C2.63947087 1.80373864 2.93412878 4.17913429 3.71484375 7.171875 C4.37484375 7.171875 5.03484375 7.171875 5.71484375 7.171875 C5.74190104 8.94262417 5.7612657 10.71349211 5.77734375 12.484375 C5.78894531 13.47050781 5.80054688 14.45664063 5.8125 15.47265625 C5.70088849 18.55759825 5.30068458 20.48414881 3.27734375 22.859375 C1.71484375 24.171875 1.71484375 24.171875 -0.28515625 24.171875 C-0.61515625 25.161875 -0.94515625 26.151875 -1.28515625 27.171875 C-5.23165992 29.14512684 -9.98382338 28.61537401 -14.28515625 28.171875 C-18.31584796 26.15652914 -20.94324889 24.00347702 -23.28515625 20.171875 C-23.6484375 17.33203125 -23.6484375 17.33203125 -23.59765625 14.234375 C-23.59378906 13.21472656 -23.58992187 12.19507812 -23.5859375 11.14453125 C-23.27569551 8.07837339 -22.68679692 5.90908574 -21.28515625 3.171875 C-15.27762048 -1.66027333 -7.32791752 -2.6555872 0 0 Z " fill="#9A9A9A" transform="translate(560.28515625,90.828125)"/>
<path d="M0 0 C1.24394531 -0.01417969 2.48789062 -0.02835937 3.76953125 -0.04296875 C6.94696545 0.1712811 8.60281607 0.4116701 11.1875 2.1875 C14.93254245 7.40380912 14.89591781 13.01009666 14.1875 19.1875 C12.875 22.125 12.875 22.125 11.1875 24.1875 C10.6925 24.93 10.1975 25.6725 9.6875 26.4375 C7.75771979 28.68891025 6.04386772 29.10267882 3.13671875 29.390625 C-3.24118072 29.52280944 -7.23958754 28.48225976 -12.125 24.125 C-14.94184095 19.22161019 -15.41070495 13.87942228 -14.1875 8.375 C-12.41386228 5.55330362 -10.2546411 3.4417841 -7.8125 1.1875 C-5.89438567 -0.73061433 -2.54660709 0.01311332 0 0 Z " fill="#969696" transform="translate(278.8125,89.8125)"/>
<path d="M0 0 C5.02818501 0.0988503 7.991748 0.80947887 11.75 4.375 C14.07664593 8.28799544 14.14335225 11.89078435 13.75 16.375 C12.37601324 19.99075462 11.02399896 22.10785102 8.25 24.8125 C5.25322252 27.88419692 4.23528111 30.38819282 2.75 34.375 C2.09 34.375 1.43 34.375 0.75 34.375 C0.42 35.365 0.09 36.355 -0.25 37.375 C-1.9 37.375 -3.55 37.375 -5.25 37.375 C-3.65956621 32.28561189 -0.5053049 28.50043357 2.75 24.375 C0.955625 24.6225 0.955625 24.6225 -0.875 24.875 C-3.68506524 24.86999097 -4.90418748 24.64128274 -7.15234375 22.91015625 C-10.19802181 19.29117408 -11.69790342 16.47292586 -11.3125 11.6875 C-9.98434509 4.80955491 -7.31774948 0.09996926 0 0 Z " fill="#E18181" transform="translate(402.25,161.625)"/>
<path d="M0 0 C3.96 0 7.92 0 12 0 C12 0.66 12 1.32 12 2 C13.2065625 2.309375 13.2065625 2.309375 14.4375 2.625 C17 4 17 4 17.8125 6.625 C17.874375 7.73875 17.93625 8.8525 18 10 C18.07541016 11.00546875 18.07541016 11.00546875 18.15234375 12.03125 C18.36023571 16.48845359 17.95392756 18.70523465 15 22 C14.31246699 23.65816784 13.64438717 25.32459336 13 27 C12.34 27.99 11.68 28.98 11 30 C10.34 30 9.68 30 9 30 C9 30.66 9 31.32 9 32 C8.34 32 7.68 32 7 32 C6.505 34.475 6.505 34.475 6 37 C4.02 37 2.04 37 0 37 C1.59043379 31.91061189 4.7446951 28.12543357 8 24 C6.7625 23.87625 5.525 23.7525 4.25 23.625 C1.13640662 23.22342347 -1.41087817 22.89205057 -4 21 C-6.55486471 17.55093265 -6.35291034 14.16434201 -6 10 C-5.24555119 7.39043391 -4.31038149 5.42663238 -3 3 C-2.01 2.67 -1.02 2.34 0 2 C0 1.34 0 0.68 0 0 Z " fill="#DF7373" transform="translate(650,162)"/>
<path d="M0 0 C1.71703125 -0.04253906 1.71703125 -0.04253906 3.46875 -0.0859375 C6.5 0.375 6.5 0.375 8.36328125 2.2890625 C9.55334339 4.47288787 10.15784014 5.91144902 10.5 8.375 C10.7475 10.045625 10.7475 10.045625 11 11.75 C11 18.41766339 6.63885658 24.67381152 3.5 30.375 C2.84 30.375 2.18 30.375 1.5 30.375 C1.5 31.035 1.5 31.695 1.5 32.375 C0.84 32.375 0.18 32.375 -0.5 32.375 C-0.87125 33.3340625 -0.87125 33.3340625 -1.25 34.3125 C-2.5 36.375 -2.5 36.375 -4.625 37.125 C-5.24375 37.2075 -5.8625 37.29 -6.5 37.375 C-4.81326082 32.87702887 -2.68326108 28.64613698 -0.5 24.375 C-1.36625 24.478125 -2.2325 24.58125 -3.125 24.6875 C-7.78238905 24.25626027 -9.18789149 22.61008273 -12.5 19.375 C-14.23459436 15.90581128 -13.97173877 12.16803468 -13.5 8.375 C-10.10717932 1.94034009 -7.18293805 0.08088894 0 0 Z " fill="#E17B7B" transform="translate(342.5,161.625)"/>
<path d="M0 0 C7 0 7 0 9.75 2.0625 C12.17651262 5.23044703 13.44271658 8.34376937 15 12 C16.32 12.99 17.64 13.98 19 15 C19 10.05 19 5.1 19 0 C20.98 0 22.96 0 25 0 C26 1 26 1 26.11352539 3.59204102 C26.10828857 4.71795654 26.10305176 5.84387207 26.09765625 7.00390625 C26.09443359 8.21884766 26.09121094 9.43378906 26.08789062 10.68554688 C26.07951172 11.96494141 26.07113281 13.24433594 26.0625 14.5625 C26.05798828 15.84576172 26.05347656 17.12902344 26.04882812 18.45117188 C26.03699545 21.63416022 26.02051068 24.81705762 26 28 C23.36 28 20.72 28 18 28 C17.67 27.01 17.34 26.02 17 25 C16.566875 24.566875 16.13375 24.13375 15.6875 23.6875 C13.36739482 21.36739482 11.71862579 18.78535904 10 16 C10 15.34 10 14.68 10 14 C9.34 14 8.68 14 8 14 C8 18.95 8 23.9 8 29 C5.36 29 2.72 29 0 29 C0 19.43 0 9.86 0 0 Z " fill="#AEAEAE" transform="translate(364,90)"/>
<path d="M0 0 C2.93756119 -0.0269501 5.87487555 -0.04681474 8.8125 -0.0625 C9.64587891 -0.07087891 10.47925781 -0.07925781 11.33789062 -0.08789062 C12.14033203 -0.09111328 12.94277344 -0.09433594 13.76953125 -0.09765625 C14.87711792 -0.10551147 14.87711792 -0.10551147 16.00708008 -0.11352539 C18 0 18 0 21 1 C22.08929212 3.84217599 22.1351002 6.60504165 22.125 9.625 C22.12886719 10.78902344 22.12886719 10.78902344 22.1328125 11.9765625 C22 14 22 14 21 16 C20.01 16 19.02 16 18 16 C18 17.32 18 18.64 18 20 C18.66 20 19.32 20 20 20 C21.25664978 22.90600261 22 24.79604584 22 28 C19.36 28 16.72 28 14 28 C13.67 26.02 13.34 24.04 13 22 C12.34 22 11.68 22 11 22 C10.01 21.01 9.02 20.02 8 19 C8 22.3 8 25.6 8 29 C5.66705225 29.04241723 3.33297433 29.04092937 1 29 C0 28 0 28 -0.11352539 25.31616211 C-0.10828857 24.14835205 -0.10305176 22.98054199 -0.09765625 21.77734375 C-0.09443359 20.51728516 -0.09121094 19.25722656 -0.08789062 17.95898438 C-0.07953403 16.61848891 -0.07106907 15.27799412 -0.0625 13.9375 C-0.0574866 12.59310058 -0.05292342 11.2486994 -0.04882812 9.90429688 C-0.03699488 6.60282059 -0.02050971 3.30143197 0 0 Z " fill="#999999" transform="translate(570,90)"/>
<path d="M0 0 C1.32 0 2.64 0 4 0 C2.31326082 4.49797113 0.18326108 8.72886302 -2 13 C-0.7315625 12.814375 -0.7315625 12.814375 0.5625 12.625 C4.70296029 13.07668658 6.62193932 14.15092384 9.640625 16.94921875 C11.86967431 20.31200865 11.66022593 23.48175838 11.5390625 27.4140625 C10.92743758 30.34808929 10.01239229 31.80555756 8 34 C3.90066942 36.34247462 -0.38000371 36.58767076 -5 36 C-8.16632356 34.82728757 -10.23587237 33.937793 -12.375 31.3125 C-14.16387188 24.69367406 -12.96361341 19.92722681 -10 14 C-9.34 14 -8.68 14 -8 14 C-7.34 12.35 -6.68 10.7 -6 9 C-5.34 9 -4.68 9 -4 9 C-4 7.68 -4 6.36 -4 5 C-3.01 5 -2.02 5 -1 5 C-0.67 3.35 -0.34 1.7 0 0 Z " fill="#D55F61" transform="translate(571,163)"/>
<path d="M0 0 C7 0 7 0 8.9375 1.875 C10 4 10 4 10 6 C10.66 6 11.32 6 12 6 C12.65104167 7.69270833 13.30208333 9.38541667 13.953125 11.078125 C15.19307673 13.5700273 15.19307673 13.5700273 19 17 C19 11.39 19 5.78 19 0 C20.98 0 22.96 0 25 0 C25 9.24 25 18.48 25 28 C18 28 18 28 16.328125 26.64453125 C15.97234375 26.03996094 15.6165625 25.43539062 15.25 24.8125 C14.85941406 24.17570312 14.46882813 23.53890625 14.06640625 22.8828125 C13.53853516 21.95082031 13.53853516 21.95082031 13 21 C12.401875 20.071875 11.80375 19.14375 11.1875 18.1875 C10 16 10 16 10 14 C9.34 14 8.68 14 8 14 C7.67 18.95 7.34 23.9 7 29 C4.69 29 2.38 29 0 29 C0 19.43 0 9.86 0 0 Z " fill="#919191" transform="translate(299,90)"/>
<path d="M0 0 C2.8875 -0.061875 5.775 -0.12375 8.75 -0.1875 C9.65331055 -0.21481201 10.55662109 -0.24212402 11.48730469 -0.27026367 C14.99309846 -0.30670073 17.37143356 -0.33087581 20.515625 1.32421875 C23.81846351 5.0529496 23.07658928 9.32805368 23 14 C22.01 14 21.02 14 20 14 C20 14.66 20 15.32 20 16 C16.02806853 19.12940055 12.95769796 19.29162929 8 19 C8 22.3 8 25.6 8 29 C5.36 29 2.72 29 0 29 C0 19.43 0 9.86 0 0 Z " fill="#ADADAD" transform="translate(484,90)"/>
<path d="M0 0 C2.7302389 -0.1083667 5.45614543 -0.18746694 8.1875 -0.25 C8.95642578 -0.28351563 9.72535156 -0.31703125 10.51757812 -0.3515625 C14.42341493 -0.41861549 16.5414415 -0.25931454 20.01171875 1.703125 C22.92568277 5.06935456 22.71915716 7.36069977 22.47265625 11.65234375 C22 14 22 14 20.0625 16.5625 C16.06391523 18.43938673 12.37772113 18.80924962 8 19 C8.01160156 19.63808594 8.02320313 20.27617188 8.03515625 20.93359375 C8.04417969 21.75988281 8.05320312 22.58617188 8.0625 23.4375 C8.07410156 24.26121094 8.08570313 25.08492187 8.09765625 25.93359375 C8 28 8 28 7 29 C4 29.125 4 29.125 1 29 C0 28 0 28 -0.11352539 25.31616211 C-0.10828857 24.14835205 -0.10305176 22.98054199 -0.09765625 21.77734375 C-0.09443359 20.51728516 -0.09121094 19.25722656 -0.08789062 17.95898438 C-0.07953403 16.61848891 -0.07106907 15.27799412 -0.0625 13.9375 C-0.0574866 12.59310058 -0.05292342 11.2486994 -0.04882812 9.90429688 C-0.03699488 6.60282059 -0.02050971 3.30143197 0 0 Z " fill="#989898" transform="translate(511,90)"/>
<path d="M0 0 C0 8.25 0 16.5 0 25 C2.31 25 4.62 25 7 25 C7 25.99 7 26.98 7 28 C5.02 28 3.04 28 1 28 C1 30.64 1 33.28 1 36 C-0.65 36 -2.3 36 -4 36 C-4 33.69 -4 31.38 -4 29 C-9.61 29 -15.22 29 -21 29 C-21 27.35 -21 25.7 -21 24 C-20.34 24 -19.68 24 -19 24 C-18.73058594 23.2678125 -18.46117187 22.535625 -18.18359375 21.78125 C-17.03614141 19.08492635 -15.72584792 16.90402447 -14.0625 14.5 C-12.35186199 12.00688038 -10.75200365 9.56600639 -9.25 6.9375 C-8.8375 6.298125 -8.425 5.65875 -8 5 C-7.34 5 -6.68 5 -6 5 C-5.87625 4.360625 -5.7525 3.72125 -5.625 3.0625 C-5.41875 2.381875 -5.2125 1.70125 -5 1 C-3 0 -3 0 0 0 Z " fill="#DF8284" transform="translate(518,163)"/>
<path d="M0 0 C0.83265381 0.00523682 1.66530762 0.01047363 2.52319336 0.01586914 C3.42231445 0.0190918 4.32143555 0.02231445 5.24780273 0.02563477 C6.66609375 0.03820312 6.66609375 0.03820312 8.11303711 0.05102539 C9.06243164 0.05553711 10.01182617 0.06004883 10.98999023 0.06469727 C13.34356776 0.07652429 15.69702188 0.09300514 18.05053711 0.11352539 C18.05053711 1.76352539 18.05053711 3.41352539 18.05053711 5.11352539 C12.77053711 5.11352539 7.49053711 5.11352539 2.05053711 5.11352539 C2.05053711 8.41352539 2.05053711 11.71352539 2.05053711 15.11352539 C3.04053711 14.78352539 4.03053711 14.45352539 5.05053711 14.11352539 C10.31378234 13.40878577 13.84667959 13.19859367 18.17553711 16.48852539 C20.97840967 20.6729557 20.79227227 25.28418454 20.05053711 30.11352539 C18.81840739 33.07063671 18.00564093 34.50905653 15.31616211 36.21118164 C10.77367506 38.02034459 5.83477759 37.7817154 1.05053711 37.11352539 C-1.69946289 34.80102539 -1.69946289 34.80102539 -2.94946289 32.11352539 C-2.94946289 31.12352539 -2.94946289 30.13352539 -2.94946289 29.11352539 C-1.29946289 29.44352539 0.35053711 29.77352539 2.05053711 30.11352539 C2.38053711 31.10352539 2.71053711 32.09352539 3.05053711 33.11352539 C6.35053711 33.11352539 9.65053711 33.11352539 13.05053711 33.11352539 C14.30436938 29.35202857 14.49312099 26.04760429 14.05053711 22.11352539 C13.08935806 19.98481846 13.08935806 19.98481846 11.05053711 19.11352539 C6.97259286 18.68873953 5.51977591 18.80069952 2.05053711 21.11352539 C-0.63696289 21.23852539 -0.63696289 21.23852539 -2.94946289 21.11352539 C-2.97834436 17.80104352 -2.99622088 14.48859372 -3.01196289 11.17602539 C-3.0203418 10.23049805 -3.0287207 9.2849707 -3.03735352 8.31079102 C-3.04057617 7.41166992 -3.04379883 6.51254883 -3.04711914 5.58618164 C-3.05235596 4.75352783 -3.05759277 3.92087402 -3.06298828 3.06298828 C-2.90876673 0.41468917 -2.64829911 0.15422155 0 0 Z " fill="#DD7B7B" transform="translate(532.949462890625,161.886474609375)"/>
<path d="M0 0 C1.99954746 -0.04254356 4.00041636 -0.04080783 6 0 C7.94800707 1.94800707 7.36409149 5.57713267 7.5 8.25 C7.72489412 12.57296476 8.01623971 16.76983077 9 21 C11.31 21 13.62 21 16 21 C16.33 14.07 16.66 7.14 17 0 C18.98 0 20.96 0 23 0 C23.14567407 3.56206722 23.23419196 7.12336551 23.3125 10.6875 C23.35439453 11.69490234 23.39628906 12.70230469 23.43945312 13.74023438 C23.56384506 21.27838589 23.56384506 21.27838589 20.54296875 25.14453125 C19.70378906 25.75683594 18.86460937 26.36914062 18 27 C17.67 27.33 17.34 27.66 17 28 C11.80731428 28.53146616 7.42202511 28.85321507 2.875 26.125 C0.04410433 22.91665158 -0.12175303 21.18502637 -0.09765625 16.9921875 C-0.09443359 16.00605469 -0.09121094 15.01992187 -0.08789062 14.00390625 C-0.07951172 12.97136719 -0.07113281 11.93882813 -0.0625 10.875 C-0.05798828 9.83472656 -0.05347656 8.79445313 -0.04882812 7.72265625 C-0.03701952 5.14838038 -0.02055075 2.57421854 0 0 Z " fill="#959596" transform="translate(455,90)"/>
<path d="M0 0 C3.49515611 0.57446337 6.71973238 1.83301363 9.2578125 4.37109375 C9.33100871 7.06764229 9.35023787 9.73800833 9.3203125 12.43359375 C9.31580078 13.19220703 9.31128906 13.95082031 9.30664062 14.73242188 C9.2948193 16.61201246 9.27688328 18.49156274 9.2578125 20.37109375 C9.9178125 20.70109375 10.5778125 21.03109375 11.2578125 21.37109375 C11.2578125 24.34109375 11.2578125 27.31109375 11.2578125 30.37109375 C10.5978125 30.37109375 9.9378125 30.37109375 9.2578125 30.37109375 C9.1546875 31.01046875 9.0515625 31.64984375 8.9453125 32.30859375 C8.7184375 32.98921875 8.4915625 33.66984375 8.2578125 34.37109375 C6.7728125 34.86609375 6.7728125 34.86609375 5.2578125 35.37109375 C5.2578125 36.03109375 5.2578125 36.69109375 5.2578125 37.37109375 C3.19597617 37.45260119 1.13319901 37.51051315 -0.9296875 37.55859375 C-2.65251953 37.61080078 -2.65251953 37.61080078 -4.41015625 37.6640625 C-8.07341471 37.34197061 -9.89536725 36.67366895 -12.7421875 34.37109375 C-13.5546875 30.68359375 -13.5546875 30.68359375 -13.7421875 27.37109375 C-11.7621875 27.37109375 -9.7821875 27.37109375 -7.7421875 27.37109375 C-7.0821875 28.69109375 -6.4221875 30.01109375 -5.7421875 31.37109375 C-4.09644184 31.39797526 -2.45057337 31.41743498 -0.8046875 31.43359375 C0.57009766 31.45099609 0.57009766 31.45099609 1.97265625 31.46875 C4.22374577 31.63058424 4.22374577 31.63058424 5.2578125 30.37109375 C5.32929449 29.01865458 5.34180704 27.66275008 5.3203125 26.30859375 C5.2996875 25.00921875 5.2790625 23.70984375 5.2578125 22.37109375 C1.9578125 22.04109375 -1.3421875 21.71109375 -4.7421875 21.37109375 C-4.7421875 19.72109375 -4.7421875 18.07109375 -4.7421875 16.37109375 C-1.4421875 15.71109375 1.8578125 15.05109375 5.2578125 14.37109375 C5.00219927 12.02797245 4.66510478 9.69265972 4.2578125 7.37109375 C1.85235612 6.16836556 0.30784297 6.27037903 -2.3671875 6.30859375 C-3.18445313 6.31761719 -4.00171875 6.32664063 -4.84375 6.3359375 C-5.47023438 6.34753906 -6.09671875 6.35914063 -6.7421875 6.37109375 C-7.0721875 7.69109375 -7.4021875 9.01109375 -7.7421875 10.37109375 C-9.0621875 10.37109375 -10.3821875 10.37109375 -11.7421875 10.37109375 C-10.86559117 2.7008759 -7.53364119 -0.41024779 0 0 Z " fill="#D86D6F" transform="translate(482.7421875,161.62890625)"/>
<path d="M0 0 C3.55292266 2.18452585 4.87358443 3.96367754 6 8 C6.72554238 14.67498991 3.8847583 20.65845734 0 26 C-0.99 26 -1.98 26 -3 26 C-3 26.66 -3 27.32 -3 28 C-3.99 28 -4.98 28 -6 28 C-6 28.66 -6 29.32 -6 30 C-6.66 30 -7.32 30 -8 30 C-8 30.99 -8 31.98 -8 33 C-3.05 33 1.9 33 7 33 C7 34.32 7 35.64 7 37 C-0.92 37 -8.84 37 -17 37 C-15.84334097 32.37336389 -14.33998808 31.26046456 -11 28 C-10.505 27.175 -10.01 26.35 -9.5 25.5 C-7.70909175 22.51515291 -5.51784499 20.38872474 -3 18 C-0.83487677 16.24524938 -0.83487677 16.24524938 -0.76953125 14.125 C-0.78371094 13.42375 -0.79789062 12.7225 -0.8125 12 C-0.81894531 11.29875 -0.82539063 10.5975 -0.83203125 9.875 C-0.89293867 7.90943627 -0.89293867 7.90943627 -2 6 C-6.455 6.495 -6.455 6.495 -11 7 C-11.33 8.65 -11.66 10.3 -12 12 C-13.65 12 -15.3 12 -17 12 C-16.69302747 7.70238458 -15.72144781 4.40871442 -12.79296875 1.13671875 C-9.00957524 -1.26190328 -4.25922902 -0.81883837 0 0 Z " fill="#D47273" transform="translate(458,162)"/>
<path d="M0 0 C5.94 0 11.88 0 18 0 C18 1.65 18 3.3 18 5 C17 6 17 6 14.71484375 6.09765625 C13.34005859 6.08025391 13.34005859 6.08025391 11.9375 6.0625 C11.01839844 6.05347656 10.09929687 6.04445313 9.15234375 6.03515625 C8.44207031 6.02355469 7.73179687 6.01195313 7 6 C7 7.65 7 9.3 7 11 C10.3 11 13.6 11 17 11 C17 12.98 17 14.96 17 17 C13.7 17 10.4 17 7 17 C7 18.98 7 20.96 7 23 C10.3 23 13.6 23 17 23 C17 24.98 17 26.96 17 29 C11.39 29 5.78 29 0 29 C0 19.43 0 9.86 0 0 Z " fill="#999999" transform="translate(396,90)"/>
<path d="M0 0 C2.0625 2.25 2.0625 2.25 2.0625 6.25 C-2.40589215 6.46278058 -5.76012526 5.84138085 -9.9375 4.25 C-8.89838086 7.03483929 -8.15819792 8.11376218 -5.58984375 9.69921875 C-4.69394531 10.10785156 -3.79804688 10.51648438 -2.875 10.9375 C2.01704545 13.20454545 2.01704545 13.20454545 3.0625 14.25 C3.55111275 18.48464382 3.5000146 20.58667142 1.125 24.1875 C-2.99442559 26.96180703 -6.10716525 27.05505579 -10.9375 26.25 C-13.9375 25 -13.9375 25 -15.9375 23.25 C-16.75 21.0625 -16.75 21.0625 -16.9375 19.25 C-12.11811476 19.01490804 -8.47451494 19.79815522 -3.9375 21.25 C-3.9375 19.6 -3.9375 17.95 -3.9375 16.25 C-4.5975 16.3325 -5.2575 16.415 -5.9375 16.5 C-10.13742471 16.15000627 -14.88660045 14.30089955 -17.9375 11.25 C-18.30614601 8.21622461 -18.33687576 5.28087904 -17.9375 2.25 C-13.56223473 -2.75030317 -5.51954013 -3.28823667 0 0 Z " fill="#9A9A9A" transform="translate(445.9375,91.75)"/>
<path d="M0 0 C7.26 0 14.52 0 22 0 C22 1.98 22 3.96 22 6 C19.69 6 17.38 6 15 6 C15 13.59 15 21.18 15 29 C12.69 29 10.38 29 8 29 C7 28 7 28 6.88647461 25.86694336 C6.89171143 24.95050049 6.89694824 24.03405762 6.90234375 23.08984375 C6.90556641 22.10048828 6.90878906 21.11113281 6.91210938 20.09179688 C6.92048828 19.05087891 6.92886719 18.00996094 6.9375 16.9375 C6.94201172 15.89271484 6.94652344 14.84792969 6.95117188 13.77148438 C6.96300087 11.1809334 6.97948311 8.59049441 7 6 C4.69 6 2.38 6 0 6 C0 4.02 0 2.04 0 0 Z " fill="#9A9A9A" transform="translate(597,90)"/>
<path d="M0 0 C0 0.66 0 1.32 0 2 C-1.11375 2.12375 -2.2275 2.2475 -3.375 2.375 C-7.03103677 2.6465813 -7.03103677 2.6465813 -9 5 C-9.24212873 6.98128508 -9.24212873 6.98128508 -9.125 9.125 C-9.08375 10.40375 -9.0425 11.6825 -9 13 C-5.37 13.33 -1.74 13.66 2 14 C1.67 15.32 1.34 16.64 1 18 C-3.95 18.495 -3.95 18.495 -9 19 C-9.185625 20.588125 -9.37125 22.17625 -9.5625 23.8125 C-9.71912109 25.15248047 -9.71912109 25.15248047 -9.87890625 26.51953125 C-10.15658709 29.13375572 -10.15658709 29.13375572 -9 32 C-5.37 31.67 -1.74 31.34 2 31 C2.33 27.7 2.66 24.4 3 21 C3.66 21.33 4.32 21.66 5 22 C4.67 24.31 4.34 26.62 4 29 C4.66 29 5.32 29 6 29 C5.6875 30.9375 5.6875 30.9375 5 33 C3.515 33.495 3.515 33.495 2 34 C2 34.66 2 35.32 2 36 C-2.09235283 37.36411761 -5.81947478 37.84676331 -9.94140625 36.24609375 C-12.5376532 34.86395811 -14.63907987 33.47076539 -16.4375 31.125 C-17.51859961 27.04084591 -17.47447109 24.06755995 -15.75 20.1875 C-14 18 -14 18 -11.8125 17.1875 C-11.214375 17.125625 -10.61625 17.06375 -10 17 C-10.70398735 14.01634426 -10.70398735 14.01634426 -12.5625 12.6875 C-14 11 -14 11 -14.5 8.125 C-14 5 -14 5 -12.0625 2.125 C-7.9563259 -0.72418203 -4.84435994 -0.47493725 0 0 Z " fill="#D8595C" transform="translate(630,163)"/>
<path d="M0 0 C7.92 0 15.84 0 24 0 C24 1.98 24 3.96 24 6 C23.34 6 22.68 6 22 6 C21.34 8.64 20.68 11.28 20 14 C19.34 14 18.68 14 18 14 C17.7525 15.155 17.505 16.31 17.25 17.5 C16.29373193 21.33863637 14.86593346 24.62742366 13 28.10546875 C11.84787011 30.21978479 11.84787011 30.21978479 10.5625 33.4375 C9 36 9 36 6.3125 36.875 C5.549375 36.91625 4.78625 36.9575 4 37 C5.63958758 31.76727367 7.38952035 26.84803364 10 22 C10.66 22 11.32 22 12 22 C12.061875 21.236875 12.12375 20.47375 12.1875 19.6875 C13.35495883 14.38903299 15.67060221 9.89770818 18 5 C12.06 5 6.12 5 0 5 C0 3.35 0 1.7 0 0 Z " fill="#E08B8C" transform="translate(587,162)"/>
<path d="M0 0 C11 0 11 0 14 2 C11.69 2.66 9.38 3.32 7 4 C6.67 6.64 6.34 9.28 6 12 C9.3 12 12.6 12 16 12 C16.33 13.32 16.66 14.64 17 16 C16 17 16 17 13.71484375 17.09765625 C11.14322917 17.06510417 8.57161458 17.03255208 6 17 C6 20.3 6 23.6 6 27 C4.02 27 2.04 27 0 27 C0 18.09 0 9.18 0 0 Z " fill="#8E8E8E" transform="translate(485,91)"/>
<path d="M0 0 C1 1 1 1 1.11352539 4.41821289 C1.11336628 5.93636988 1.10767226 7.45453229 1.09765625 8.97265625 C1.0962413 9.77029892 1.09482635 10.56794159 1.09336853 11.38975525 C1.08775316 13.94737435 1.07519812 16.50490718 1.0625 19.0625 C1.05748698 20.79231645 1.05292373 22.52213426 1.04882812 24.25195312 C1.03777875 28.50133553 1.02050386 32.75065312 1 37 C-0.65 37 -2.3 37 -4 37 C-4 27.1 -4 17.2 -4 7 C-6.475 8.485 -6.475 8.485 -9 10 C-10.32 10 -11.64 10 -13 10 C-13 6 -13 6 -11.42578125 4.296875 C-10.72839844 3.78640625 -10.03101563 3.2759375 -9.3125 2.75 C-8.62800781 2.22921875 -7.94351562 1.7084375 -7.23828125 1.171875 C-4.60987014 -0.20425647 -2.92780178 -0.29926424 0 0 Z " fill="#E79D9E" transform="translate(370,162)"/>
<path d="M0 0 C7 0 7 0 9.3125 1.6875 C11.82831879 5.13510352 13.20127567 7.4904325 12.625 11.8125 C12.41875 12.534375 12.2125 13.25625 12 14 C11.34 14 10.68 14 10 14 C10 13.34 10 12.68 10 12 C8.68 11.67 7.36 11.34 6 11 C6 16.28 6 21.56 6 27 C4.02 27 2.04 27 0 27 C0 18.09 0 9.18 0 0 Z " fill="#8F8F90" transform="translate(365,91)"/>
<path d="M0 0 C2.31 0 4.62 0 7 0 C7 9.57 7 19.14 7 29 C4.69 29 2.38 29 0 29 C0 19.43 0 9.86 0 0 Z " fill="#969697" transform="translate(351,90)"/>
<path d="M0 0 C1.98 0 3.96 0 6 0 C6.33 7.26 6.66 14.52 7 22 C9.64 22.33 12.28 22.66 15 23 C15 24.32 15 25.64 15 27 C10.05 27 5.1 27 0 27 C0 18.09 0 9.18 0 0 Z " fill="#8D8D8D" transform="translate(331,91)"/>
<path d="M0 0 C1.875 0.3359375 1.875 0.3359375 3.875 1.7734375 C5.38423881 5.64086196 5.69472163 9.25279578 4.875 13.3359375 C2.19120612 15.94079626 0.43254977 16.26903153 -3.25 16.7109375 C-6.125 16.3359375 -6.125 16.3359375 -7.78125 15.125 C-9.55416789 12.76454537 -9.52614283 11.26393452 -9.5 8.3359375 C-9.50773437 7.4696875 -9.51546875 6.6034375 -9.5234375 5.7109375 C-9.125 3.3359375 -9.125 3.3359375 -7.8515625 1.55078125 C-5.22191646 -0.29949006 -3.1293936 -0.14956661 0 0 Z " fill="#F5F5F5" transform="translate(281.125,95.6640625)"/>
<path d="M0 0 C0 12.21 0 24.42 0 37 C-1.32 37 -2.64 37 -4 37 C-4 26.77 -4 16.54 -4 6 C-4.99 6 -5.98 6 -7 6 C-7 6.66 -7 7.32 -7 8 C-10 10 -10 10 -13 10 C-13 8.68 -13 7.36 -13 6 C-12.360625 5.896875 -11.72125 5.79375 -11.0625 5.6875 C-10.381875 5.460625 -9.70125 5.23375 -9 5 C-8.67 4.01 -8.34 3.02 -8 2 C-5 0 -5 0 0 0 Z " fill="#D05457" transform="translate(433,162)"/>
<path d="M0 0 C2.14295281 1.58737245 2.89591096 2.49080767 3.43359375 5.12109375 C3.4440132 11.29982534 3.4440132 11.29982534 1.375 14.5625 C-1.72548536 16.43910956 -3.43283597 16.59452734 -7 16 C-9.375 14.5 -9.375 14.5 -11 12 C-11.81157964 7.95866467 -11.63559176 5.01694681 -9.4375 1.5 C-6.08965651 -0.56021138 -3.85985753 -0.49125459 0 0 Z " fill="#F5F5F5" transform="translate(555,97)"/>
<path d="M0 0 C2.40180965 4.26035283 2.30738073 7.15875348 2 12 C1.01 13.485 1.01 13.485 0 15 C-2.3125 15.3984375 -2.3125 15.3984375 -5 15.375 C-5.886875 15.38273438 -6.77375 15.39046875 -7.6875 15.3984375 C-8.450625 15.26695312 -9.21375 15.13546875 -10 15 C-12.47919216 11.28121175 -12.51982439 8.30587873 -12 4 C-9.92967553 -1.52086525 -5.0416524 -0.38050207 0 0 Z " fill="#FCEEED" transform="translate(575,180)"/>
<path d="M0 0 C1.24394531 -0.01417969 2.48789062 -0.02835937 3.76953125 -0.04296875 C6.91851092 0.16936245 8.63447009 0.39600958 11.1875 2.1875 C11.9375 4.3125 11.9375 4.3125 12.1875 6.1875 C11.1975 5.5275 10.2075 4.8675 9.1875 4.1875 C9.1875 3.5275 9.1875 2.8675 9.1875 2.1875 C3.9075 2.1875 -1.3725 2.1875 -6.8125 2.1875 C-6.4825 4.4975 -6.1525 6.8075 -5.8125 9.1875 C-5.83972589 10.91758161 -5.89839353 12.64769003 -6 14.375 C-6.07434399 18.41271628 -6.07434399 18.41271628 -3.8125 21.8125 C-3.1525 22.26625 -2.4925 22.72 -1.8125 23.1875 C-3.4625 23.5175 -5.1125 23.8475 -6.8125 24.1875 C-6.8125 25.1775 -6.8125 26.1675 -6.8125 27.1875 C-10.21493675 25.77959514 -11.84474754 24.29133054 -13.8125 21.1875 C-14.84952844 16.90714773 -15.14407139 12.67957125 -14.1875 8.375 C-12.41386228 5.55330362 -10.2546411 3.4417841 -7.8125 1.1875 C-5.89438567 -0.73061433 -2.54660709 0.01311332 0 0 Z " fill="#9E9E9E" transform="translate(278.8125,89.8125)"/>
<path d="M0 0 C2.475 0.99 2.475 0.99 5 2 C6.55933311 6.67799933 6.57094713 10.49750756 4.8125 15.125 C3 18 3 18 0.5 20.4375 C-2.49677748 23.50919692 -3.51471889 26.01319282 -5 30 C-5.66 30 -6.32 30 -7 30 C-7.33 30.99 -7.66 31.98 -8 33 C-9.65 33 -11.3 33 -13 33 C-11.51131293 28.39860359 -9.25370145 25.49772906 -6 22 C-5.34 22 -4.68 22 -4 22 C-4 21.01 -4 20.02 -4 19 C-5.98 19 -7.96 19 -10 19 C-10 18.34 -10 17.68 -10 17 C-8.02 17 -6.04 17 -4 17 C-4 16.34 -4 15.68 -4 15 C-2.68 14.34 -1.36 13.68 0 13 C0 8.71 0 4.42 0 0 Z " fill="#DD7475" transform="translate(410,166)"/>
<path d="M0 0 C0.66 0.33 1.32 0.66 2 1 C2.51953125 3.14453125 2.51953125 3.14453125 2.8125 5.8125 C2.92207031 6.68519531 3.03164063 7.55789062 3.14453125 8.45703125 C2.96670685 11.58577943 2.18633955 12.79346332 0 15 C-3.74923579 15.65204101 -5.52789125 15.25658084 -8.875 13.4375 C-11 11 -11 11 -11.5625 7.5 C-11 4 -11 4 -9.4375 1.5625 C-6.14629634 -0.54724594 -3.83614957 -0.35519903 0 0 Z " fill="#FCF5F5" transform="translate(660,167)"/>
<path d="M0 0 C2.56 7.68 2.56 7.68 1 12 C-0.1875 13.8125 -0.1875 13.8125 -2 15 C-5.59350675 15.53520313 -7.31881548 15.44814771 -10.375 13.4375 C-12.58646281 10.12030578 -12.42660463 7.91054241 -12 4 C-8.7771058 -0.8343413 -5.44718932 -0.10277716 0 0 Z " fill="#FDF6F5" transform="translate(408,167)"/>
<path d="M0 0 C0.66 0.33 1.32 0.66 2 1 C2.05410687 2.77049689 2.09284119 4.54146849 2.125 6.3125 C2.14820313 7.29863281 2.17140625 8.28476563 2.1953125 9.30078125 C2 12 2 12 0 15 C-7.00389105 15.77821012 -7.00389105 15.77821012 -10 13.4375 C-11.38885542 10.05216491 -11.45310904 7.62487235 -11 4 C-8.0811897 -0.55334407 -5.14435411 -0.47632908 0 0 Z " fill="#FCF5F3" transform="translate(345,167)"/>
<path d="M0 0 C2.41486943 2.41486943 2.2961925 3.12707789 2.3125 6.4375 C2.32925781 7.21996094 2.34601562 8.00242188 2.36328125 8.80859375 C2 11 2 11 0.765625 12.76171875 C-1.47428206 14.33262702 -2.84457137 14.40186585 -5.5625 14.375 C-6.74005859 14.38660156 -6.74005859 14.38660156 -7.94140625 14.3984375 C-8.62074219 14.26695312 -9.30007813 14.13546875 -10 14 C-12.43220229 10.35169657 -12.1443286 9.00571956 -11.4609375 4.875 C-11 3 -11 3 -9.9375 1 C-6.61891157 -0.71281984 -3.69580284 -0.29331769 0 0 Z " fill="#FDF0F0" transform="translate(631,181)"/>
<path d="M0 0 C0.99 0 1.98 0 3 0 C3 8.25 3 16.5 3 25 C5.31 25 7.62 25 10 25 C10 25.99 10 26.98 10 28 C8.02 28.33 6.04 28.66 4 29 C3.67 30.98 3.34 32.96 3 35 C2.01 35 1.02 35 0 35 C-0.33 32.69 -0.66 30.38 -1 28 C-7.93 27.505 -7.93 27.505 -15 27 C-15 26.34 -15 25.68 -15 25 C-10.38 24.67 -5.76 24.34 -1 24 C-0.67 18.39 -0.34 12.78 0 7 C-0.66 7 -1.32 7 -2 7 C-1.34 4.69 -0.68 2.38 0 0 Z " fill="#D75557" transform="translate(515,163)"/>
<path d="M0 0 C1.71703125 -0.04253906 1.71703125 -0.04253906 3.46875 -0.0859375 C6.5 0.375 6.5 0.375 8.40625 2.3984375 C8.7671875 3.05070313 9.128125 3.70296875 9.5 4.375 C9.17 5.035 8.84 5.695 8.5 6.375 C7.51 6.045 6.52 5.715 5.5 5.375 C5.83 6.365 6.16 7.355 6.5 8.375 C6.66796875 10.3125 6.66796875 10.3125 6.6875 12.375 C6.70167969 13.055625 6.71585937 13.73625 6.73046875 14.4375 C6.5 16.375 6.5 16.375 4.5 19.375 C3.84 19.045 3.18 18.715 2.5 18.375 C2.83 18.045 3.16 17.715 3.5 17.375 C3.73363881 15.52608054 3.91303635 13.67011969 4.0625 11.8125 C4.14628906 10.80058594 4.23007812 9.78867188 4.31640625 8.74609375 C4.40728516 7.57240234 4.40728516 7.57240234 4.5 6.375 C3.08376784 6.32052953 1.66691809 6.28199492 0.25 6.25 C-0.93335938 6.21519531 -0.93335938 6.21519531 -2.140625 6.1796875 C-4.79993434 6.399829 -6.32596887 6.82212062 -8.5 8.375 C-9.19632215 10.32865445 -9.19632215 10.32865445 -9.25 12.5 C-9.3325 13.77875 -9.415 15.0575 -9.5 16.375 C-10.82 16.705 -12.14 17.035 -13.5 17.375 C-13.88434943 12.57063218 -13.97968712 9.28475143 -11.6875 4.9375 C-7.97975991 0.59414732 -5.54574362 0.06245207 0 0 Z " fill="#D76565" transform="translate(342.5,161.625)"/>
<path d="M0 0 C5.75 0.75 5.75 0.75 8 3 C8.5631333 7.26372358 8.45306076 9.31310142 6.0625 12.9375 C1.94307441 15.71180703 -1.16966525 15.80505579 -6 15 C-9 13.75 -9 13.75 -11 12 C-11.8125 9.8125 -11.8125 9.8125 -12 8 C-7.18061476 7.76490804 -3.53701494 8.54815522 1 10 C1 8.35 1 6.7 1 5 C0.01 4.67 -0.98 4.34 -2 4 C-1.34 2.68 -0.68 1.36 0 0 Z " fill="#8F8F8F" transform="translate(441,103)"/>
<path d="M0 0 C1.32 0 2.64 0 4 0 C4 8.58 4 17.16 4 26 C-2 26 -2 26 -4.3125 23.9375 C-6.25165093 20.56194098 -6.69763318 17.85517691 -7 14 C-5.68 14.33 -4.36 14.66 -3 15 C-3 15.66 -3 16.32 -3 17 C-2.01 17 -1.02 17 0 17 C0 11.39 0 5.78 0 0 Z " fill="#8A8A8A" transform="translate(384,91)"/>
<path d="M0 0 C0.99 0 1.98 0 3 0 C3.33 3.63 3.66 7.26 4 11 C9.445 11.495 9.445 11.495 15 12 C15 12.99 15 13.98 15 15 C11.04 15 7.08 15 3 15 C3 18.96 3 22.92 3 27 C2.01 27 1.02 27 0 27 C0 23.04 0 19.08 0 15 C-3.63 15 -7.26 15 -11 15 C-11 14.01 -11 13.02 -11 12 C-7.7 11.67 -4.4 11.34 -1 11 C-0.67 7.37 -0.34 3.74 0 0 Z " fill="#CF6061" transform="translate(309,167)"/>
<path d="M0 0 C1.40248854 2.80497708 0.64937752 5.0293526 0.15625 8.02734375 C-0.14590964 10.21251946 -0.14590964 10.21251946 1 13 C6.445 12.505 6.445 12.505 12 12 C12.33 8.7 12.66 5.4 13 2 C13.66 2.33 14.32 2.66 15 3 C14.67 5.31 14.34 7.62 14 10 C14.66 10 15.32 10 16 10 C15.6875 11.9375 15.6875 11.9375 15 14 C14.01 14.33 13.02 14.66 12 15 C12 15.66 12 16.32 12 17 C7.90764717 18.36411761 4.18052522 18.84676331 0.05859375 17.24609375 C-2.5376532 15.86395811 -4.63907987 14.47076539 -6.4375 12.125 C-7.18331673 9.30747014 -7.25214668 6.89968682 -7 4 C-6.34 3.34 -5.68 2.68 -5 2 C-5 4.64 -5 7.28 -5 10 C-4.34 10 -3.68 10 -3 10 C-2.814375 8.081875 -2.814375 8.081875 -2.625 6.125 C-2.25 2.25 -2.25 2.25 0 0 Z " fill="#E07F80" transform="translate(620,182)"/>
<path d="M0 0 C1 3 1 3 -0.3125 5.6875 C-0.869375 6.450625 -1.42625 7.21375 -2 8 C-2.66 8 -3.32 8 -4 8 C-4 8.99 -4 9.98 -4 11 C0.95 11 5.9 11 11 11 C11 12.32 11 13.64 11 15 C3.08 15 -4.84 15 -13 15 C-11.29394715 8.17578859 -5.23153354 4.38725147 0 0 Z " fill="#D17475" transform="translate(454,184)"/>
<path d="M0 0 C0.33 0.66 0.66 1.32 1 2 C0.67 2.66 0.34 3.32 0 4 C1.2684375 3.814375 1.2684375 3.814375 2.5625 3.625 C6.70296029 4.07668658 8.62193932 5.15092384 11.640625 7.94921875 C13.86967431 11.31200865 13.66022593 14.48175838 13.5390625 18.4140625 C12.92575174 21.35617645 12.06262749 22.83349919 10 25 C7.3125 25.75 7.3125 25.75 5 26 C5 25.67 5 25.34 5 25 C3.02 24.67 1.04 24.34 -1 24 C-1 23.67 -1 23.34 -1 23 C0.134375 22.87625 1.26875 22.7525 2.4375 22.625 C3.613125 22.41875 4.78875 22.2125 6 22 C7.57170996 18.85658007 7.23175783 15.44228549 7 12 C6.67 11.01 6.34 10.02 6 9 C3.03 8.67 0.06 8.34 -3 8 C-1.125 1.125 -1.125 1.125 0 0 Z " fill="#DC7272" transform="translate(569,172)"/>
<path d="M0 0 C3.49515611 0.57446337 6.71973238 1.83301363 9.2578125 4.37109375 C9.49609375 6.55078125 9.49609375 6.55078125 9.5703125 9.24609375 C9.60769531 10.13039062 9.64507812 11.0146875 9.68359375 11.92578125 C9.2578125 14.37109375 9.2578125 14.37109375 7.23828125 16.19140625 C6.58472656 16.58070313 5.93117188 16.97 5.2578125 17.37109375 C4.9278125 16.71109375 4.5978125 16.05109375 4.2578125 15.37109375 C4.9178125 15.37109375 5.5778125 15.37109375 6.2578125 15.37109375 C5.99387749 11.93878927 5.99387749 11.93878927 5.2578125 8.37109375 C2.05401233 6.23522697 1.23841283 6.139772 -2.4296875 6.24609375 C-3.64205078 6.27316406 -3.64205078 6.27316406 -4.87890625 6.30078125 C-5.49378906 6.32398438 -6.10867188 6.3471875 -6.7421875 6.37109375 C-7.0721875 7.69109375 -7.4021875 9.01109375 -7.7421875 10.37109375 C-9.0621875 10.37109375 -10.3821875 10.37109375 -11.7421875 10.37109375 C-10.86559117 2.7008759 -7.53364119 -0.41024779 0 0 Z " fill="#DB6E6F" transform="translate(482.7421875,161.62890625)"/>
<path d="M0 0 C3.5 0.125 3.5 0.125 4.5 1.125 C4.58700342 2.75972882 4.60701063 4.39814055 4.59765625 6.03515625 C4.59443359 7.02451172 4.59121094 8.01386719 4.58789062 9.03320312 C4.57951172 10.07412109 4.57113281 11.11503906 4.5625 12.1875 C4.55798828 13.23228516 4.55347656 14.27707031 4.54882812 15.35351562 C4.53699913 17.9440666 4.52051689 20.53450559 4.5 23.125 C6.2015625 23.0940625 6.2015625 23.0940625 7.9375 23.0625 C11.5 23.125 11.5 23.125 12.5 24.125 C12.54080783 26.12458364 12.54254356 28.12545254 12.5 30.125 C9.85409986 30.15184679 7.20846904 30.17176357 4.5625 30.1875 C3.80775391 30.19587891 3.05300781 30.20425781 2.27539062 30.21289062 C0.35005687 30.22152441 -1.57535581 30.17724333 -3.5 30.125 C-5.33034055 28.29465945 -4.63042797 25.39288008 -4.6328125 22.9375 C-4.63410156 21.68195313 -4.63539063 20.42640625 -4.63671875 19.1328125 C-4.63462402 18.47571289 -4.6325293 17.81861328 -4.63037109 17.14160156 C-4.62502234 15.13338665 -4.63031691 13.12539541 -4.63671875 11.1171875 C-4.63542969 9.86164063 -4.63414062 8.60609375 -4.6328125 7.3125 C-4.63112061 5.57033203 -4.63112061 5.57033203 -4.62939453 3.79296875 C-4.43352042 -0.24573359 -4.17496015 0.14910572 0 0 Z M-3.5 2.125 C-3.5 11.035 -3.5 19.945 -3.5 29.125 C1.45 29.125 6.4 29.125 11.5 29.125 C11.5 27.805 11.5 26.485 11.5 25.125 C8.86 24.795 6.22 24.465 3.5 24.125 C3.17 16.865 2.84 9.605 2.5 2.125 C0.52 2.125 -1.46 2.125 -3.5 2.125 Z " fill="#D0D0D0" transform="translate(334.5,88.875)"/>
<path d="M0 0 C0.83265381 0.00523682 1.66530762 0.01047363 2.52319336 0.01586914 C3.42231445 0.0190918 4.32143555 0.02231445 5.24780273 0.02563477 C6.66609375 0.03820312 6.66609375 0.03820312 8.11303711 0.05102539 C9.06243164 0.05553711 10.01182617 0.06004883 10.98999023 0.06469727 C13.34356776 0.07652429 15.69702188 0.09300514 18.05053711 0.11352539 C18.05053711 1.76352539 18.05053711 3.41352539 18.05053711 5.11352539 C12.77053711 5.11352539 7.49053711 5.11352539 2.05053711 5.11352539 C2.38053711 8.74352539 2.71053711 12.37352539 3.05053711 16.11352539 C2.39053711 16.11352539 1.73053711 16.11352539 1.05053711 16.11352539 C1.02367158 14.13443141 1.00420335 12.15523568 0.98803711 10.17602539 C0.97643555 9.07387695 0.96483398 7.97172852 0.95288086 6.83618164 C1.05053711 4.11352539 1.05053711 4.11352539 2.05053711 3.11352539 C1.06053711 2.78352539 0.07053711 2.45352539 -0.94946289 2.11352539 C-1.27946289 8.05352539 -1.60946289 13.99352539 -1.94946289 20.11352539 C-0.29946289 19.78352539 1.35053711 19.45352539 3.05053711 19.11352539 C2.72053711 19.77352539 2.39053711 20.43352539 2.05053711 21.11352539 C0.40053711 21.11352539 -1.24946289 21.11352539 -2.94946289 21.11352539 C-2.97834436 17.80104352 -2.99622088 14.48859372 -3.01196289 11.17602539 C-3.0203418 10.23049805 -3.0287207 9.2849707 -3.03735352 8.31079102 C-3.04057617 7.41166992 -3.04379883 6.51254883 -3.04711914 5.58618164 C-3.05235596 4.75352783 -3.05759277 3.92087402 -3.06298828 3.06298828 C-2.90876673 0.41468917 -2.64829911 0.15422155 0 0 Z " fill="#E09191" transform="translate(532.949462890625,161.886474609375)"/>
<path d="M0 0 C3.5625 0.3125 3.5625 0.3125 5.5 1.4375 C7.06004211 4.19051549 6.95820119 6.2128407 6.5625 9.3125 C2.35165963 12.11972691 0.44695782 11.25787893 -4.4375 10.3125 C-5.81875018 7.54999964 -5.62829306 5.36518901 -5.4375 2.3125 C-3.4375 0.3125 -3.4375 0.3125 0 0 Z " fill="#FCF3F2" transform="translate(625.4375,165.6875)"/>
<path d="M0 0 C1.32 0 2.64 0 4 0 C4 11.55 4 23.1 4 35 C3.01 35 2.02 35 1 35 C1 24.77 1 14.54 1 4 C0.01 3.67 -0.98 3.34 -2 3 C-1.34 2.01 -0.68 1.02 0 0 Z " fill="#D55A5A" transform="translate(366,163)"/>
<path d="M0 0 C0.66 0.66 1.32 1.32 2 2 C1 3 1 3 -2.4375 3.3125 C-6.00625963 3.56943176 -6.00625963 3.56943176 -7.2109375 5.7578125 C-8.06384051 8.18140818 -8.23517228 10.00119866 -8.1875 12.5625 C-8.18105469 13.32691406 -8.17460938 14.09132812 -8.16796875 14.87890625 C-8.07053505 17.18897716 -8.07053505 17.18897716 -7 20 C-7.66 20 -8.32 20 -9 20 C-9 19.34 -9 18.68 -9 18 C-10.32 18 -11.64 18 -13 18 C-14.74338879 14.51322242 -14.51370892 10.76432444 -13.43359375 7.0546875 C-10.53766796 -0.19270793 -7.06985485 -0.44887967 0 0 Z " fill="#DC7171" transform="translate(658,163)"/>
<path d="M0 0 C0.66 0 1.32 0 2 0 C2 5.28 2 10.56 2 16 C-1.63 16 -5.26 16 -9 16 C-8 12 -8 12 -6.125 10.1875 C-3.36620849 7.34756757 -2.45418838 4.67009449 -1 1 C-0.67 0.67 -0.34 0.34 0 0 Z " fill="#FEF6F4" transform="translate(512,172)"/>
<path d="M0 0 C1.9375 0.375 1.9375 0.375 4 1 C5.61227876 4.22455753 5.46900928 7.503749 5 11 C3.90583902 13.81901736 2.5462608 16.40449079 1 19 C-0.79240663 18.88610125 -2.58394835 18.75852313 -4.375 18.625 C-5.87160156 18.52058594 -5.87160156 18.52058594 -7.3984375 18.4140625 C-10 18 -10 18 -12 16 C-10.7625 15.9175 -9.525 15.835 -8.25 15.75 C-5.51932175 15.37235301 -3.95319101 14.97425506 -1.5 13.625 C0.94604995 9.34441259 0.29889705 4.81556356 0 0 Z " fill="#D76062" transform="translate(348,167)"/>
<path d="M0 0 C3 1 3 1 5 4 C5.47166457 8.16637037 5.26129908 10.47740183 3.375 14.25 C-0.31610652 18.52391282 -3.28673758 19.80656715 -8.875 20.4375 C-13.50352071 20.28559874 -17.08583692 18.33184183 -21 16 C-21 15.67 -21 15.34 -21 15 C-15.43109483 15.47986031 -10.32932432 16.29915181 -5 18 C-5 17.34 -5 16.68 -5 16 C-3.68 16 -2.36 16 -1 16 C-1 15.01 -1 14.02 -1 13 C-0.01 13 0.98 13 2 13 C1.85851011 11.3954444 1.71164314 9.79136233 1.5625 8.1875 C1.48128906 7.29417969 1.40007812 6.40085938 1.31640625 5.48046875 C1.06510233 2.87256441 1.06510233 2.87256441 0 0 Z " fill="#CC6C78" transform="translate(165,159)"/>
<path d="M0 0 C5.61 0 11.22 0 17 0 C17 0.33 17 0.66 17 1 C12.38 1.33 7.76 1.66 3 2 C2.67 5.96 2.34 9.92 2 14 C2.66 13.67 3.32 13.34 4 13 C5.54023996 12.93049459 7.08334988 12.91547643 8.625 12.9375 C9.85089844 12.95103516 9.85089844 12.95103516 11.1015625 12.96484375 C12.04128906 12.98224609 12.04128906 12.98224609 13 13 C13 13.66 13 14.32 13 15 C10.02148438 15.29296875 10.02148438 15.29296875 7.04296875 15.5859375 C4.70011858 15.92665391 4.70011858 15.92665391 2 18 C1.01 18 0.02 18 -1 18 C-1.02707139 15.75006641 -1.04642829 13.50003905 -1.0625 11.25 C-1.07410156 9.99703125 -1.08570313 8.7440625 -1.09765625 7.453125 C-1 4 -1 4 0 0 Z " fill="#D55A5D" transform="translate(532,164)"/>
<path d="M0 0 C2 3 2 3 2 5 C2.66 5 3.32 5 4 5 C4 6.32 4 7.64 4 9 C4.66 9 5.32 9 6 9 C6.33 11.31 6.66 13.62 7 16 C8.98 16 10.96 16 13 16 C13.66 18.97 14.32 21.94 15 25 C16.32 25.33 17.64 25.66 19 26 C19.33 27.65 19.66 29.3 20 31 C15.40185679 28.8361679 13.20408734 25.83630186 10.4296875 21.7421875 C9.02200116 19.71135865 9.02200116 19.71135865 6 19 C5.05078125 16.49609375 5.05078125 16.49609375 4.3125 13.4375 C3.93544922 11.91962891 3.93544922 11.91962891 3.55078125 10.37109375 C3.36902344 9.58863281 3.18726562 8.80617187 3 8 C2.34 8 1.68 8 1 8 C0.67 5.36 0.34 2.72 0 0 Z " fill="#D4808C" transform="translate(104,128)"/>
<path d="M0 0 C0 12.21 0 24.42 0 37 C-1.32 37 -2.64 37 -4 37 C-4 27.1 -4 17.2 -4 7 C-3.67 7 -3.34 7 -3 7 C-3 16.57 -3 26.14 -3 36 C-2.34 36 -1.68 36 -1 36 C-1 24.78 -1 13.56 -1 2 C-2.98 2.99 -2.98 2.99 -5 4 C-7.25 3.625 -7.25 3.625 -9 3 C-5.59353476 -0.0279691 -4.9819505 0 0 0 Z " fill="#D67E80" transform="translate(433,162)"/>
<path d="M0 0 C2.17734436 1.88633891 4.04740846 3.86577204 6 6 C5.67 6.66 5.34 7.32 5 8 C4.2575 7.360625 3.515 6.72125 2.75 6.0625 C-0.3278753 3.54133932 -0.3278753 3.54133932 -4 3 C-6.0167658 4.64633943 -8.01739574 6.31267723 -10 8 C-10.99 7.67 -11.98 7.34 -13 7 C-13.66 9.97 -14.32 12.94 -15 16 C-15.33 16 -15.66 16 -16 16 C-16.46292585 6.89579158 -16.46292585 6.89579158 -13 3 C-8.89286109 0.20856792 -4.82322421 -2.28468515 0 0 Z " fill="#CE7280" transform="translate(119,112)"/>
<path d="M0 0 C0.33 0 0.66 0 1 0 C1.06058594 0.97582031 1.12117187 1.95164063 1.18359375 2.95703125 C1.26738281 4.22933594 1.35117187 5.50164062 1.4375 6.8125 C1.51871094 8.07707031 1.59992187 9.34164062 1.68359375 10.64453125 C1.87184547 13.99181893 1.87184547 13.99181893 3 17 C6.3 17.33 9.6 17.66 13 18 C12.67 18.99 12.34 19.98 12 21 C2.61452514 21.31284916 2.61452514 21.31284916 0 19 C-2.22431449 13.43921378 -3.27883808 7.19709521 -1 1.5 C-0.67 1.005 -0.34 0.51 0 0 Z " fill="#DD6C6E" transform="translate(562,178)"/>
<path d="M0 0 C0 0.66 0 1.32 0 2 C-1.11375 2.12375 -2.2275 2.2475 -3.375 2.375 C-7.03103677 2.6465813 -7.03103677 2.6465813 -9 5 C-9.24212873 6.98128508 -9.24212873 6.98128508 -9.125 9.125 C-9.08375 10.40375 -9.0425 11.6825 -9 13 C-6.36 13.33 -3.72 13.66 -1 14 C-1 14.33 -1 14.66 -1 15 C-6.75 15.125 -6.75 15.125 -9 14 C-9.33 14.99 -9.66 15.98 -10 17 C-10.33 16.01 -10.66 15.02 -11 14 C-11.7734375 13.3503125 -11.7734375 13.3503125 -12.5625 12.6875 C-14 11 -14 11 -14.5 8.125 C-14 5 -14 5 -12.0625 2.125 C-7.9563259 -0.72418203 -4.84435994 -0.47493725 0 0 Z " fill="#D46566" transform="translate(630,163)"/>
<path d="M0 0 C8.78760665 -0.92141895 8.78760665 -0.92141895 13.125 2.375 C15.9606077 6.51399229 15.4271426 11.1970188 15 16 C14.67 16 14.34 16 14 16 C13.67 13.69 13.34 11.38 13 9 C12.34 10.32 11.68 11.64 11 13 C11 11.35 11 9.7 11 8 C10.34 8 9.68 8 9 8 C8.62875 7.505 8.2575 7.01 7.875 6.5 C4.82907612 4.06326089 1.81223906 4.81251283 -2 5 C-1.67 4.34 -1.34 3.68 -1 3 C1.64 3 4.28 3 7 3 C7 2.34 7 1.68 7 1 C4.69 1 2.38 1 0 1 C0 0.67 0 0.34 0 0 Z " fill="#DE7F7F" transform="translate(538,176)"/>
<path d="M0 0 C0.99 0.33 1.98 0.66 3 1 C3.33 2.98 3.66 4.96 4 7 C4.66 7 5.32 7 6 7 C5.67 8.65 5.34 10.3 5 12 C4.34 12 3.68 12 3 12 C3 14.97 3 17.94 3 21 C3.66 21.33 4.32 21.66 5 22 C5 22.66 5 23.32 5 24 C5.99 24.33 6.98 24.66 8 25 C8.6875 27.0625 8.6875 27.0625 9 29 C5.47642091 27.82547364 3.01546348 25.56032158 0.90234375 22.53515625 C-0.806067 17.73533556 0.15327836 12.61752257 0.703125 7.64453125 C0.94852923 4.63187138 1.00802582 2.78647136 0 0 Z " fill="#F2C1C7" transform="translate(127,121)"/>
<path d="M0 0 C1.65 0 3.3 0 5 0 C5 4.62 5 9.24 5 14 C3.35 14.33 1.7 14.66 0 15 C0 10.05 0 5.1 0 0 Z " fill="#898989" transform="translate(456,91)"/>
<path d="M0 0 C1.32 0.66 2.64 1.32 4 2 C4.30107307 7.11824225 3.82956174 9.75565738 1 14 C1 14.99 1 15.98 1 17 C1.66 17 2.32 17 3 17 C3.33 16.01 3.66 15.02 4 14 C4.33 14.66 4.66 15.32 5 16 C3.75 18.625 3.75 18.625 2 21 C1.01 21 0.02 21 -1 21 C-1 21.66 -1 22.32 -1 23 C-1.99 22.67 -2.98 22.34 -4 22 C-3.34 20.68 -2.68 19.36 -2 18 C-3.98 19.32 -5.96 20.64 -8 22 C-6.44095325 18.17324889 -3.96833913 15.81992217 -1 13 C1.44214222 11.00630631 1.44214222 11.00630631 1.1875 7.0625 C1.16190316 4.32363845 0.88664156 2.65992468 0 0 Z " fill="#EDACAB" transform="translate(456,167)"/>
<path d="M0 0 C0.66 0 1.32 0 2 0 C2.02687279 1.81242052 2.04633715 3.62495233 2.0625 5.4375 C2.07410156 6.44683594 2.08570313 7.45617187 2.09765625 8.49609375 C2 11 2 11 1 12 C-0.68608966 12.07205511 -2.37500659 12.08386068 -4.0625 12.0625 C-4.98160156 12.05347656 -5.90070313 12.04445312 -6.84765625 12.03515625 C-7.55792969 12.02355469 -8.26820313 12.01195312 -9 12 C-9 12.99 -9 13.98 -9 15 C-5.37 15 -1.74 15 2 15 C2 18.96 2 22.92 2 27 C1.67 27 1.34 27 1 27 C1 23.37 1 19.74 1 16 C-2.63 16 -6.26 16 -10 16 C-10 14.02 -10 12.04 -10 10 C-6.7 10 -3.4 10 0 10 C0 6.7 0 3.4 0 0 Z " fill="#F4BDBC" transform="translate(307,167)"/>
<path d="M0 0 C0.33 0 0.66 0 1 0 C1 2.31 1 4.62 1 7 C1.99 6.67 2.98 6.34 4 6 C4 7.98 4 9.96 4 12 C4.66 12.33 5.32 12.66 6 13 C6 15.97 6 18.94 6 22 C5.67 22 5.34 22 5 22 C5 19.36 5 16.72 5 14 C1.9530371 12.30566082 -0.82821466 11.50532888 -4.25 10.875 C-5.14203125 10.70742187 -6.0340625 10.53984375 -6.953125 10.3671875 C-7.62859375 10.24601563 -8.3040625 10.12484375 -9 10 C-9 10.66 -9 11.32 -9 12 C-7.02 12 -5.04 12 -3 12 C-3 12.33 -3 12.66 -3 13 C-5.31 13 -7.62 13 -10 13 C-10 11.35 -10 9.7 -10 8 C-6.7 7.34 -3.4 6.68 0 6 C0 4.02 0 2.04 0 0 Z " fill="#E28687" transform="translate(488,170)"/>
<path d="M0 0 C7.26 0 14.52 0 22 0 C20.875 7.875 20.875 7.875 17 11 C17.33 8.36 17.66 5.72 18 3 C12.06 2.67 6.12 2.34 0 2 C0 1.34 0 0.68 0 0 Z " fill="#CF5659" transform="translate(588,163)"/>
<path d="M0 0 C0.721875 0.350625 1.44375 0.70125 2.1875 1.0625 C5.32982572 2.10994191 6.87318269 1.9554164 10 1 C10.33 0.67 10.66 0.34 11 0 C17.68716 -0.835895 20.91850512 0.75134158 26.3125 4.6875 C26.869375 5.120625 27.42625 5.55375 28 6 C26.68 6.33 25.36 6.66 24 7 C24 6.34 24 5.68 24 5 C22.35 5 20.7 5 19 5 C19 4.01 19 3.02 19 2 C14.66770285 2.8604139 14.66770285 2.8604139 11 5 C9.48071962 5.07179964 7.95832518 5.08392007 6.4375 5.0625 C5.61121094 5.05347656 4.78492188 5.04445312 3.93359375 5.03515625 C3.29550781 5.02355469 2.65742188 5.01195312 2 5 C1.34 3.35 0.68 1.7 0 0 Z " fill="#CF848F" transform="translate(137,152)"/>
<path d="M0 0 C2.10304477 -0.1080023 4.20766909 -0.18558987 6.3125 -0.25 C8.07013672 -0.31960937 8.07013672 -0.31960937 9.86328125 -0.390625 C13 0 13 0 14.91796875 2.015625 C15.27503906 2.67046875 15.63210938 3.3253125 16 4 C15.67 4.66 15.34 5.32 15 6 C14.01 5.67 13.02 5.34 12 5 C12.33 5.99 12.66 6.98 13 8 C13.16796875 9.9375 13.16796875 9.9375 13.1875 12 C13.20167969 12.680625 13.21585937 13.36125 13.23046875 14.0625 C13 16 13 16 11 19 C10.34 18.67 9.68 18.34 9 18 C9.33 17.67 9.66 17.34 10 17 C10.23363881 15.15108054 10.41303635 13.29511969 10.5625 11.4375 C10.706875 9.643125 10.85125 7.84875 11 6 C7.37 6 3.74 6 0 6 C0.33 5.34 0.66 4.68 1 4 C4.3 4 7.6 4 11 4 C11 3.01 11 2.02 11 1 C7.37 1 3.74 1 0 1 C0 0.67 0 0.34 0 0 Z " fill="#EBA5A3" transform="translate(336,162)"/>
<path d="M0 0 C0.721875 0.144375 1.44375 0.28875 2.1875 0.4375 C3.5796875 0.7159375 3.5796875 0.7159375 5 1 C6.66666667 1.33333333 8.33333333 1.66666667 10 2 C10 3.65 10 5.3 10 7 C5.18061476 7.23509196 1.53701494 6.45184478 -3 5 C-3.33 5.99 -3.66 6.98 -4 8 C-4 6.35 -4 4.7 -4 3 C-3.01 3 -2.02 3 -1 3 C-0.67 2.01 -0.34 1.02 0 0 Z " fill="#DADADA" transform="translate(432,106)"/>
<path d="M0 0 C1.65 0 3.3 0 5 0 C5 8.25 5 16.5 5 25 C7.97 25 10.94 25 14 25 C14 25.99 14 26.98 14 28 C15.98 28 17.96 28 20 28 C18.68 28.33 17.36 28.66 16 29 C16.33 30.65 16.66 32.3 17 34 C15.5 32.625 15.5 32.625 14 31 C14 30.34 14 29.68 14 29 C13.01 29 12.02 29 11 29 C11 28.01 11 27.02 11 26 C8.69 26 6.38 26 4 26 C4 17.75 4 9.5 4 1 C2.68 1.33 1.36 1.66 0 2 C0 1.34 0 0.68 0 0 Z " fill="#E9ACAD" transform="translate(514,162)"/>
<path d="M0 0 C0.99 0 1.98 0 3 0 C5.12561242 3.45412018 5.54144577 5.97783144 5 10 C3.62208283 12.88832638 2.07139656 15.55516857 0 18 C-0.99 18.33 -1.98 18.66 -3 19 C-2.58183404 16.49100426 -2.21789001 14.38956092 -0.96875 12.15625 C0.20989804 9.5328076 0.20031437 7.61194623 0.125 4.75 C0.10695313 3.85796875 0.08890625 2.9659375 0.0703125 2.046875 C0.04710937 1.37140625 0.02390625 0.6959375 0 0 Z " fill="#D36062" transform="translate(459,166)"/>
<path d="M0 0 C1.40248854 2.80497708 0.64937752 5.0293526 0.15625 8.02734375 C-0.14590964 10.21251946 -0.14590964 10.21251946 1 13 C6.445 12.505 6.445 12.505 12 12 C11.67 12.66 11.34 13.32 11 14 C9.22992286 14.08114106 7.45877902 14.13925505 5.6875 14.1875 C4.20830078 14.23970703 4.20830078 14.23970703 2.69921875 14.29296875 C0 14 0 14 -1.85546875 12.48828125 C-2.23316406 11.99714844 -2.61085938 11.50601563 -3 11 C-2.67 12.32 -2.34 13.64 -2 15 C-5 14 -5 14 -6.1875 12.3125 C-7.21330202 9.39290965 -7.26725573 7.0734409 -7 4 C-6.34 3.34 -5.68 2.68 -5 2 C-5 4.64 -5 7.28 -5 10 C-4.34 10 -3.68 10 -3 10 C-2.814375 8.081875 -2.814375 8.081875 -2.625 6.125 C-2.25 2.25 -2.25 2.25 0 0 Z " fill="#E5908E" transform="translate(620,182)"/>
<path d="M0 0 C0.33 0 0.66 0 1 0 C2.23558731 5.71459131 2.20578452 8.91496249 -1 14 C-3.6875 14.875 -3.6875 14.875 -6 15 C-4.36041242 9.76727367 -2.61047965 4.84803364 0 0 Z " fill="#D37678" transform="translate(597,184)"/>
<path d="M0 0 C3 2 3 2 4 5 C4.14245356 9.20237996 4.03585973 12.94074591 3.25 17.0625 C2.92741108 22.14327546 4.16999866 23.88363442 7 28 C5.68 28 4.36 28 3 28 C-0.66871166 19.86503067 -0.66871166 19.86503067 -1 16 C-0.34 15.34 0.32 14.68 1 14 C1.54128467 9.33027294 1.1732849 4.54647898 0 0 Z " fill="#CD717D" transform="translate(125,120)"/>
<path d="M0 0 C1.98 0 3.96 0 6 0 C6.35191406 0.96679688 6.35191406 0.96679688 6.7109375 1.953125 C7.81161073 4.2077908 7.81161073 4.2077908 10.1640625 4.609375 C10.97617187 4.65578125 11.78828125 4.7021875 12.625 4.75 C13.85089844 4.83507812 13.85089844 4.83507812 15.1015625 4.921875 C15.72804688 4.94765625 16.35453125 4.9734375 17 5 C15 7 15 7 12.125 7.1875 C9.56748401 7.03404904 7.43353596 6.7487803 5 6 C5 6.66 5 7.32 5 8 C3.68 7.67 2.36 7.34 1 7 C0.67 4.69 0.34 2.38 0 0 Z " fill="#E39696" transform="translate(469,189)"/>
<path d="M0 0 C2.64 0 5.28 0 8 0 C8.04254356 1.99954746 8.04080783 4.00041636 8 6 C7 7 7 7 3.4375 7.0625 C2.303125 7.041875 1.16875 7.02125 0 7 C0 4.69 0 2.38 0 0 Z " fill="#E5E5E5" transform="translate(518,96)"/>
<path d="M0 0 C1.24546405 2.49092811 0.7767578 3.41080733 0 6 C0.66 6.33 1.32 6.66 2 7 C1.01 7.99 0.02 8.98 -1 10 C-1.33 9.01 -1.66 8.02 -2 7 C-3.41934142 8.19190201 -3.41934142 8.19190201 -3.125 11.625 C-3.08304465 15.49887722 -2.63639059 19.18165644 -2 23 C-5.10273958 20.03216214 -5.94833588 18.76204576 -6.25 14.3125 C-6.21791557 9.92495354 -4.94842503 6.89685007 -3 3 C-2.34 3 -1.68 3 -1 3 C-0.67 2.01 -0.34 1.02 0 0 Z " fill="#DE7979" transform="translate(564,174)"/>
<path d="M0 0 C1.32 0 2.64 0 4 0 C4 0.66 4 1.32 4 2 C9.28 2 14.56 2 20 2 C20 2.66 20 3.32 20 4 C12.74 4 5.48 4 -2 4 C-1.34 2.68 -0.68 1.36 0 0 Z " fill="#DE4E52" transform="translate(444,194)"/>
<path d="M0 0 C2.475 0.495 2.475 0.495 5 1 C5 4.3 5 7.6 5 11 C8.3 11 11.6 11 15 11 C15.33 12.65 15.66 14.3 16 16 C15.67 15.01 15.34 14.02 15 13 C14.21753906 13.01160156 13.43507813 13.02320313 12.62890625 13.03515625 C11.61699219 13.04417969 10.60507812 13.05320313 9.5625 13.0625 C8.55316406 13.07410156 7.54382813 13.08570313 6.50390625 13.09765625 C4 13 4 13 3 12 C2.92773498 10.14712498 2.9161878 8.29166122 2.9375 6.4375 C2.94652344 5.42558594 2.95554687 4.41367188 2.96484375 3.37109375 C2.97644531 2.58863281 2.98804688 1.80617187 3 1 C2.01 0.67 1.02 0.34 0 0 Z " fill="#F0C0BE" transform="translate(309,166)"/>
<path d="M0 0 C1.134375 0.020625 2.26875 0.04125 3.4375 0.0625 C3.4375 0.3925 3.4375 0.7225 3.4375 1.0625 C1.4575 1.0625 -0.5225 1.0625 -2.5625 1.0625 C-2.5625 6.6725 -2.5625 12.2825 -2.5625 18.0625 C-5.96164975 16.92945008 -6.61504451 15.93731525 -8.5625 13.0625 C-8.2325 12.4025 -7.9025 11.7425 -7.5625 11.0625 C-6.0775 12.0525 -6.0775 12.0525 -4.5625 13.0625 C-4.57410156 12.20785156 -4.58570313 11.35320312 -4.59765625 10.47265625 C-4.61119141 8.81556641 -4.61119141 8.81556641 -4.625 7.125 C-4.63660156 6.02285156 -4.64820313 4.92070313 -4.66015625 3.78515625 C-4.51237367 -0.33502211 -4.25789233 0.07469987 0 0 Z " fill="#D3D3D3" transform="translate(320.5625,88.9375)"/>
<path d="M0 0 C2.475 0.495 2.475 0.495 5 1 C5.33 1.99 5.66 2.98 6 4 C8.97 4.33 11.94 4.66 15 5 C15 5.66 15 6.32 15 7 C13.41705218 7.05437607 11.83355744 7.09296271 10.25 7.125 C9.36828125 7.14820313 8.4865625 7.17140625 7.578125 7.1953125 C4.8418892 6.98802191 3.26921357 6.52656186 1 5 C0.25 2.375 0.25 2.375 0 0 Z " fill="#D95356" transform="translate(530,191)"/>
<path d="M0 0 C0.33 0.66 0.66 1.32 1 2 C0.67 2.66 0.34 3.32 0 4 C0.66 4 1.32 4 2 4 C2 4.66 2 5.32 2 6 C1.34 6 0.68 6 0 6 C-0.33 7.65 -0.66 9.3 -1 11 C-2.98 11 -4.96 11 -7 11 C-5.5140084 6.40693504 -3.14985318 3.56430755 0 0 Z " fill="#D57E7E" transform="translate(657,188)"/>
<path d="M0 0 C0.66 0 1.32 0 2 0 C2 5.28 2 10.56 2 16 C-1.63 16 -5.26 16 -9 16 C-8.04065919 12.16263678 -7.76390737 11.40339772 -5 9 C-5.33 10.65 -5.66 12.3 -6 14 C-3.69 14.33 -1.38 14.66 1 15 C1 11.37 1 7.74 1 4 C0.34 4 -0.32 4 -1 4 C-1 4.66 -1 5.32 -1 6 C-1.66 6 -2.32 6 -3 6 C-1.125 1.125 -1.125 1.125 0 0 Z " fill="#F5BFBD" transform="translate(512,172)"/>
<path d="M0 0 C1.98 0 3.96 0 6 0 C6.35281338 4.1970092 5.64185432 6.06522073 3 9.3125 C2.443125 10.00988281 1.88625 10.70726562 1.3125 11.42578125 C0.879375 11.94527344 0.44625 12.46476563 0 13 C1.16595703 12.938125 1.16595703 12.938125 2.35546875 12.875 C5 13 5 13 7.3125 15 C8.1478125 15.99 8.1478125 15.99 9 17 C8.67 17.66 8.34 18.32 8 19 C7.195625 18.0409375 7.195625 18.0409375 6.375 17.0625 C3.55632807 14.61470596 1.66139268 14.33285388 -2 14 C-0.31326082 9.50202887 1.81673892 5.27113698 4 1 C2.68 0.67 1.36 0.34 0 0 Z " fill="#F6D0CD" transform="translate(571,162)"/>
<path d="M0 0 C5.21290023 0.0683211 5.21290023 0.0683211 8.3125 2.375 C8.745625 3.035 9.17875 3.695 9.625 4.375 C8.635 4.87 8.635 4.87 7.625 5.375 C7.295 6.035 6.965 6.695 6.625 7.375 C6.295 7.045 5.965 6.715 5.625 6.375 C3.93891034 6.30294489 2.24999341 6.29113932 0.5625 6.3125 C-0.35660156 6.32152344 -1.27570313 6.33054688 -2.22265625 6.33984375 C-2.93292969 6.35144531 -3.64320313 6.36304688 -4.375 6.375 C-2.375 3.375 -2.375 3.375 0.75 2.6875 C1.69875 2.584375 2.6475 2.48125 3.625 2.375 C2.366875 2.375 1.10875 2.375 -0.1875 2.375 C-2.58333333 2.375 -4.97916667 2.375 -7.375 2.375 C-4.79100594 -0.20899406 -3.59129635 0.0481407 0 0 Z " fill="#E18483" transform="translate(452.375,161.625)"/>
<path d="M0 0 C6.43538595 -0.36426713 6.43538595 -0.36426713 8.9375 1.25 C10 3 10 3 10 7 C8.02 7 6.04 7 4 7 C3.67 6.01 3.34 5.02 3 4 C2.01 3.67 1.02 3.34 0 3 C0 2.01 0 1.02 0 0 Z " fill="#8E8E8E" transform="translate(438,91)"/>
<path d="M0 0 C-0.9590625 0.1546875 -0.9590625 0.1546875 -1.9375 0.3125 C-2.618125 0.539375 -3.29875 0.76625 -4 1 C-4.33 1.99 -4.66 2.98 -5 4 C-4.34 4.66 -3.68 5.32 -3 6 C-4.32 6 -5.64 6 -7 6 C-7.66 7.32 -8.32 8.64 -9 10 C-10.32 10 -11.64 10 -13 10 C-13 6 -13 6 -11.42578125 4.296875 C-10.72839844 3.78640625 -10.03101563 3.2759375 -9.3125 2.75 C-8.62800781 2.22921875 -7.94351562 1.7084375 -7.23828125 1.171875 C-4.63032079 -0.19354932 -2.90303484 -0.22370146 0 0 Z " fill="#D88285" transform="translate(370,162)"/>
<path d="M0 0 C1.15392455 2.3078491 1.53437166 4.47230331 2 7 C1.01 7.33 0.02 7.66 -1 8 C-1.33 8.99 -1.66 9.98 -2 11 C-3.65 11 -5.3 11 -7 11 C-5.5140084 6.40693504 -3.14985318 3.56430755 0 0 Z " fill="#CF777E" transform="translate(404,188)"/>
<path d="M0 0 C-0.47610659 4.99911924 -2.03162219 7.97832683 -5 12 C-6.0326802 9.21176345 -6.04509293 8.1322726 -5.0625 5.25 C-4.711875 4.5075 -4.36125 3.765 -4 3 C-5.98 3 -7.96 3 -10 3 C-10 2.34 -10 1.68 -10 1 C-6.56484998 0.37542727 -3.50935186 0 0 0 Z " fill="#D95555" transform="translate(410,182)"/>
<path d="M0 0 C1.99954746 -0.04254356 4.00041636 -0.04080783 6 0 C7 1 7 1 7.125 3.5 C7 6 7 6 6 7 C4.00041636 7.04080783 1.99954746 7.04254356 0 7 C0 4.69 0 2.38 0 0 Z " fill="#EFEFEF" transform="translate(578,96)"/>
<path d="M0 0 C0 1.66666667 0 3.33333333 0 5 C-7.625 7 -7.625 7 -11 7 C-10.25 4.0625 -10.25 4.0625 -9 1 C-6.14297313 -0.37925435 -3.13680281 -0.08713341 0 0 Z " fill="#8C8C8C" transform="translate(553,91)"/>
<path d="M0 0 C5.02237015 -0.29543354 7.9107578 -0.00679573 12 3 C13 4 13 4 13.0625 7.0625 C13.041875 8.031875 13.02125 9.00125 13 10 C12.01 10.495 12.01 10.495 11 11 C11 9.35 11 7.7 11 6 C10.34 6 9.68 6 9 6 C9 5.34 9 4.68 9 4 C4.545 3.01 4.545 3.01 0 2 C0 1.34 0 0.68 0 0 Z " fill="#D16365" transform="translate(479,180)"/>
<path d="M0 0 C-0.375 1.9375 -0.375 1.9375 -1 4 C-1.99 4.495 -1.99 4.495 -3 5 C-3.99 4.67 -4.98 4.34 -6 4 C-6 4.66 -6 5.32 -6 6 C-9 8 -9 8 -12 8 C-12 6.68 -12 5.36 -12 4 C-10.56570999 3.32645501 -9.12742943 2.66140299 -7.6875 2 C-6.88699219 1.62875 -6.08648437 1.2575 -5.26171875 0.875 C-3 0 -3 0 0 0 Z " fill="#DE5557" transform="translate(432,164)"/>
<path d="M0 0 C3.96 0 7.92 0 12 0 C12 0.66 12 1.32 12 2 C14.475 2.99 14.475 2.99 17 4 C16.67 4.66 16.34 5.32 16 6 C14.68 5.34 13.36 4.68 12 4 C12 4.66 12 5.32 12 6 C8.37 6 4.74 6 1 6 C1.33 5.34 1.66 4.68 2 4 C4.32156597 3.59270772 6.6568787 3.25561323 9 3 C7.50256881 1.50256881 6.01175761 1.66797307 3.9375 1.4375 C2.638125 1.293125 1.33875 1.14875 0 1 C0 0.67 0 0.34 0 0 Z " fill="#E58B8A" transform="translate(650,162)"/>
<path d="M0 0 C0.66 0 1.32 0 2 0 C1.67 1.65 1.34 3.3 1 5 C-1.31 5 -3.62 5 -6 5 C-6 5.99 -6 6.98 -6 8 C-8.4375 7.25 -8.4375 7.25 -11 6 C-11.8125 3.875 -11.8125 3.875 -12 2 C-7.66831683 1.73747375 -4.1196377 2.70756464 0 4 C0 2.68 0 1.36 0 0 Z " fill="#E4E4E4" transform="translate(448,94)"/>
<path d="M0 0 C1.60379341 -0.05416188 3.20811406 -0.09286638 4.8125 -0.125 C5.70582031 -0.14820312 6.59914063 -0.17140625 7.51953125 -0.1953125 C10 0 10 0 13 2 C8.66914029 3.29925791 4.48525648 4.343621 0 5 C0 3.35 0 1.7 0 0 Z " fill="#888888" transform="translate(486,91)"/>
<path d="M0 0 C1.98 0 3.96 0 6 0 C6.33 1.98 6.66 3.96 7 6 C4.69 6 2.38 6 0 6 C0 4.02 0 2.04 0 0 Z " fill="#F3F3F3" transform="translate(492,96)"/>
<path d="M0 0 C-1.67517239 3.53647504 -2.49280817 4.7911563 -6.1875 6.3125 C-7.5796875 6.6528125 -7.5796875 6.6528125 -9 7 C-10.125 3.25 -10.125 3.25 -9 1 C-5.8035914 -0.06546953 -3.34252724 -0.07427838 0 0 Z " fill="#898989" transform="translate(281,91)"/>
<path d="M0 0 C0.66 0 1.32 0 2 0 C1.67 1.98 1.34 3.96 1 6 C0.34 6 -0.32 6 -1 6 C-1.2475 6.639375 -1.495 7.27875 -1.75 7.9375 C-3 10 -3 10 -5.125 10.75 C-6.053125 10.87375 -6.053125 10.87375 -7 11 C-5.51131293 6.39860359 -3.25370145 3.49772906 0 0 Z " fill="#CE6164" transform="translate(343,188)"/>
<path d="M0 0 C5.56890517 0.47986031 10.67067568 1.29915181 16 3 C16 3.66 16 4.32 16 5 C9.49686791 5.46450943 5.5825192 4.32575612 0 1 C0 0.67 0 0.34 0 0 Z " fill="#CF7480" transform="translate(144,174)"/>
<path d="M0 0 C3.3 0.33 6.6 0.66 10 1 C9.67 2.32 9.34 3.64 9 5 C6.03 4.67 3.06 4.34 0 4 C0 2.68 0 1.36 0 0 Z " fill="#898989" transform="translate(272,113)"/>
<path d="M0 0 C0.66 0.33 1.32 0.66 2 1 C1.0409375 1.86625 1.0409375 1.86625 0.0625 2.75 C-1.98223868 4.98062401 -2.58205199 6.07436391 -3 9 C-1.68 9 -0.36 9 1 9 C1.185625 8.0409375 1.185625 8.0409375 1.375 7.0625 C1.58125 6.381875 1.7875 5.70125 2 5 C4.95664519 3.5216774 7.74229737 3.93967217 11 4 C11 4.33 11 4.66 11 5 C9.02 5 7.04 5 5 5 C4.690625 5.639375 4.38125 6.27875 4.0625 6.9375 C3 9 3 9 2 10 C0.00041636 10.04080783 -2.00045254 10.04254356 -4 10 C-4.25 7.25 -4.25 7.25 -4 4 C-2 1.625 -2 1.625 0 0 Z " fill="#F6CDCB" transform="translate(474,163)"/>
<path d="M0 0 C1.32 0.33 2.64 0.66 4 1 C4 1.66 4 2.32 4 3 C5.65 3.33 7.3 3.66 9 4 C9.33 3.01 9.66 2.02 10 1 C14.455 0.505 14.455 0.505 19 0 C19.33 0.66 19.66 1.32 20 2 C18.72125 2.12375 17.4425 2.2475 16.125 2.375 C12.65209064 2.69042399 12.65209064 2.69042399 10 5 C5.86169011 4.69903201 3.48152976 4.32101984 0 2 C0 1.34 0 0.68 0 0 Z " fill="#FAD8DB" transform="translate(136,150)"/>
<path d="M0 0 C0.66 0.33 1.32 0.66 2 1 C2.02698189 2.62490954 2.04638757 4.24994633 2.0625 5.875 C2.07410156 6.77992188 2.08570313 7.68484375 2.09765625 8.6171875 C2 11 2 11 1 13 C2.32 12.34 3.64 11.68 5 11 C4.3125 12.9375 4.3125 12.9375 3 15 C0.375 15.75 0.375 15.75 -2 16 C-2 15.67 -2 15.34 -2 15 C-4.97 14.505 -4.97 14.505 -8 14 C-8 13.67 -8 13.34 -8 13 C-6.865625 12.87625 -5.73125 12.7525 -4.5625 12.625 C-3.386875 12.41875 -2.21125 12.2125 -1 12 C0.26237731 9.47524538 0.09856404 7.68799534 0.0625 4.875 C0.05347656 3.96492187 0.04445313 3.05484375 0.03515625 2.1171875 C0.02355469 1.41851562 0.01195312 0.71984375 0 0 Z " fill="#E18585" transform="translate(576,182)"/>
<path d="M0 0 C0.33 0 0.66 0 1 0 C1.73211081 5.85688646 -0.51971807 9.5041604 -4 14 C-4.33 14 -4.66 14 -5 14 C-5.125 8.25 -5.125 8.25 -4 6 C-3.34 6 -2.68 6 -2 6 C-1.34 4.02 -0.68 2.04 0 0 Z " fill="#D55D61" transform="translate(603,176)"/>
<path d="M0 0 C0.99 0 1.98 0 3 0 C3.12910853 6.74233419 2.797837 13.30386804 2 20 C1.67 20 1.34 20 1 20 C1 14.72 1 9.44 1 4 C0.34 4 -0.32 4 -1 4 C-0.67 2.68 -0.34 1.36 0 0 Z " fill="#DE5152" transform="translate(514,166)"/>
<path d="M0 0 C5.61 0 11.22 0 17 0 C17 0.33 17 0.66 17 1 C12.38 1.33 7.76 1.66 3 2 C2.34 5.96 1.68 9.92 1 14 C0.67 14 0.34 14 0 14 C0 9.38 0 4.76 0 0 Z " fill="#D24C4E" transform="translate(532,164)"/>
<path d="M0 0 C4 1 4 1 5 2 C5.27314815 7.73611111 5.27314815 7.73611111 5 10 C4.34 10.66 3.68 11.32 3 12 C2.01 8.04 1.02 4.08 0 0 Z " fill="#D55B5B" transform="translate(662,166)"/>
<path d="M0 0 C2.475 0.495 2.475 0.495 5 1 C5 1.66 5 2.32 5 3 C5.7425 2.896875 6.485 2.79375 7.25 2.6875 C10 3 10 3 12.375 5.3125 C12.91125 6.199375 13.4475 7.08625 14 8 C13.67 8.99 13.34 9.98 13 11 C12.67 10.01 12.34 9.02 12 8 C10.34015202 7.31653318 8.67163195 6.65411685 7 6 C4.57367539 4.45780195 2.21636269 2.83312995 0 1 C0 0.67 0 0.34 0 0 Z " fill="#F6CED1" transform="translate(156,152)"/>
<path d="M0 0 C3.96 0.33 7.92 0.66 12 1 C11.67 1.99 11.34 2.98 11 4 C3.51234156 4.3682455 3.51234156 4.3682455 1 2.5625 C0 1 0 1 0 0 Z " fill="#D6585C" transform="translate(563,195)"/>
<path d="M0 0 C1.670625 0.061875 1.670625 0.061875 3.375 0.125 C3.705 0.785 4.035 1.445 4.375 2.125 C1.735 2.455 -0.905 2.785 -3.625 3.125 C-3.625 5.105 -3.625 7.085 -3.625 9.125 C-2.965 9.455 -2.305 9.785 -1.625 10.125 C-2.615 10.125 -3.605 10.125 -4.625 10.125 C-6.00625018 7.36249964 -5.81579306 5.17768901 -5.625 2.125 C-3.625 0.125 -3.625 0.125 0 0 Z " fill="#F8C9C3" transform="translate(625.625,165.875)"/>
<path d="M0 0 C3.3 0 6.6 0 10 0 C10.33 0.99 10.66 1.98 11 3 C7.04 3 3.08 3 -1 3 C-0.67 2.01 -0.34 1.02 0 0 Z " fill="#D65758" transform="translate(398,163)"/>
<path d="M0 0 C2 3 2 3 2 5 C2.66 5 3.32 5 4 5 C4 6.32 4 7.64 4 9 C4.66 9 5.32 9 6 9 C6.66 12.3 7.32 15.6 8 19 C7.34 19 6.68 19 6 19 C5.01 15.37 4.02 11.74 3 8 C2.34 8 1.68 8 1 8 C0.67 5.36 0.34 2.72 0 0 Z " fill="#D88F9A" transform="translate(104,128)"/>
<path d="M0 0 C8.57142857 -0.14285714 8.57142857 -0.14285714 12 1 C11.34 2.98 10.68 4.96 10 7 C9.34 6.67 8.68 6.34 8 6 C8.33 5.01 8.66 4.02 9 3 C8.34 3 7.68 3 7 3 C6.34 4.32 5.68 5.64 5 7 C5 4 5 4 6 1 C4.02 1 2.04 1 0 1 C0 0.67 0 0.34 0 0 Z " fill="#E68888" transform="translate(336,185)"/>
<path d="M0 0 C0.99 0 1.98 0 3 0 C3 8.25 3 16.5 3 25 C2.67 25 2.34 25 2 25 C2 17.74 2 10.48 2 3 C1.01 3 0.02 3 -1 3 C-0.67 2.01 -0.34 1.02 0 0 Z " fill="#D26468" transform="translate(515,163)"/>
<path d="M0 0 C4 1 4 1 5 2 C5.04092937 4.33297433 5.04241723 6.66705225 5 9 C4.01 9.33 3.02 9.66 2 10 C1.34 6.7 0.68 3.4 0 0 Z " fill="#D15E60" transform="translate(631,165)"/>
<path d="M0 0 C4.455 0.99 4.455 0.99 9 2 C9 2.33 9 2.66 9 3 C7.02 3 5.04 3 3 3 C3 3.66 3 4.32 3 5 C4.98 5 6.96 5 9 5 C8.67 5.99 8.34 6.98 8 8 C8 7.34 8 6.68 8 6 C5.98177083 6.09765625 3.96354167 6.1953125 1.9453125 6.29296875 C1.30335938 6.19628906 0.66140625 6.09960938 0 6 C-0.66 5.01 -1.32 4.02 -2 3 C-1.01 3 -0.02 3 1 3 C0.67 2.01 0.34 1.02 0 0 Z " fill="#E48585" transform="translate(397,180)"/>
<path d="M0 0 C0.495 0.165 0.99 0.33 1.5 0.5 C6.25659235 1.45131847 11.35968313 1.54677229 16 0 C16 0.66 16 1.32 16 2 C11.71465609 4.85689594 8.03601927 4.34655647 3.0625 3.5 C2.381875 3.335 1.70125 3.17 1 3 C0.67 2.01 0.34 1.02 0 0 Z " fill="#F5CBC8" transform="translate(562,197)"/>
<path d="M0 0 C0.33 0 0.66 0 1 0 C1.04898438 0.59167969 1.09796875 1.18335938 1.1484375 1.79296875 C1.56456867 6.19104472 2.04965595 9.96928897 4 14 C3.34 14 2.68 14 2 14 C2 13.34 2 12.68 2 12 C1.01 12 0.02 12 -1 12 C-1.02687279 10.18757948 -1.04633715 8.37504767 -1.0625 6.5625 C-1.07410156 5.55316406 -1.08570313 4.54382813 -1.09765625 3.50390625 C-1 1 -1 1 0 0 Z " fill="#D15554" transform="translate(647,169)"/>
<path d="M0 0 C0.66 0.309375 1.32 0.61875 2 0.9375 C5.70476015 2.24960255 9.09263991 2.60264135 13 3 C13 3.66 13 4.32 13 5 C11.39667209 5.08121924 9.79215974 5.13929134 8.1875 5.1875 C7.29417969 5.22230469 6.40085937 5.25710937 5.48046875 5.29296875 C3 5 3 5 1.17578125 3.61328125 C0 2 0 2 0 0 Z " fill="#D45153" transform="translate(473,193)"/>
<path d="M0 0 C0.66 0.33 1.32 0.66 2 1 C2.61538462 8.26153846 2.61538462 8.26153846 -0.5 12 C-1.325 12.66 -2.15 13.32 -3 14 C-3.99 13.67 -4.98 13.34 -6 13 C-5.195625 12.34 -4.39125 11.68 -3.5625 11 C-0.24851076 7.12020772 -0.25422975 4.99985175 0 0 Z " fill="#F2C1C1" transform="translate(638,184)"/>
<path d="M0 0 C1.0828125 0.7115625 1.0828125 0.7115625 2.1875 1.4375 C4.89475226 2.94152903 6.96194275 3.56599182 10 4 C10 4.33 10 4.66 10 5 C7.69 5 5.38 5 3 5 C3 5.66 3 6.32 3 7 C1.02 6.34 -0.96 5.68 -3 5 C-3 4.34 -3 3.68 -3 3 C-2.01 3 -1.02 3 0 3 C0 3.66 0 4.32 0 5 C0.66 5 1.32 5 2 5 C1.34 3.35 0.68 1.7 0 0 Z " fill="#E68A8B" transform="translate(649,178)"/>
<path d="M0 0 C3.63 0 7.26 0 11 0 C10.67 1.32 10.34 2.64 10 4 C6.37 4 2.74 4 -1 4 C-0.67 2.68 -0.34 1.36 0 0 Z " fill="#DB4F54" transform="translate(621,177)"/>
<path d="M0 0 C0.99 0.33 1.98 0.66 3 1 C3 1.66 3 2.32 3 3 C6.3 3 9.6 3 13 3 C13 3.66 13 4.32 13 5 C11.39667209 5.08121924 9.79215974 5.13929134 8.1875 5.1875 C7.29417969 5.22230469 6.40085937 5.25710937 5.48046875 5.29296875 C3 5 3 5 1.17578125 3.61328125 C0 2 0 2 0 0 Z " fill="#D55353" transform="translate(617,193)"/>
<path d="M0 0 C0.99 0.495 0.99 0.495 2 1 C5.86061033 2.28687011 8.94150283 2.13757618 13 2 C12.01 3.485 12.01 3.485 11 5 C8.8359375 5.29296875 8.8359375 5.29296875 6.375 5.1875 C5.55773437 5.16042969 4.74046875 5.13335937 3.8984375 5.10546875 C2.95871094 5.05326172 2.95871094 5.05326172 2 5 C1.34 3.35 0.68 1.7 0 0 Z " fill="#CD6E7A" transform="translate(137,152)"/>
<path d="M0 0 C0.33 0.99 0.66 1.98 1 3 C2.32 2.67 3.64 2.34 5 2 C5 4.64 5 7.28 5 10 C4.01 9.01 3.02 8.02 2 7 C1.34 7.99 0.68 8.98 0 10 C0 6.7 0 3.4 0 0 Z " fill="#FCE4E0" transform="translate(553,182)"/>
<path d="M0 0 C0 1.32 0 2.64 0 4 C-1.62580966 3.88601335 -3.25067157 3.75844341 -4.875 3.625 C-5.77992188 3.55539063 -6.68484375 3.48578125 -7.6171875 3.4140625 C-10 3 -10 3 -12 1 C-10.37512529 0.83211627 -8.75009558 0.66573213 -7.125 0.5 C-6.22007812 0.4071875 -5.31515625 0.314375 -4.3828125 0.21875 C-2 0 -2 0 0 0 Z " fill="#DB4F53" transform="translate(348,182)"/>
<path d="M0 0 C1.67299959 0.65061095 3.33859237 1.32033324 5 2 C5.7425 2.268125 6.485 2.53625 7.25 2.8125 C9 4 9 4 9.75 6.625 C9.87375 7.800625 9.87375 7.800625 10 9 C5.82117329 6.43571997 2.87494471 3.98069267 0 0 Z " fill="#CE7081" transform="translate(124,159)"/>
<path d="M0 0 C0 0.99 0 1.98 0 3 C-3.47385433 5.31590289 -4.96430006 5.26991835 -9.0625 5.25 C-10.12597656 5.25515625 -11.18945312 5.2603125 -12.28515625 5.265625 C-15 5 -15 5 -17 3 C-16.27554688 3.03480469 -15.55109375 3.06960937 -14.8046875 3.10546875 C-9.06001832 3.26631949 -4.98677034 3.23466184 0 0 Z " fill="#F3C4CC" transform="translate(166,175)"/>
<path d="M0 0 C0.99 0 1.98 0 3 0 C3 0.99 3 1.98 3 3 C4.98 3 6.96 3 9 3 C7.68 3.33 6.36 3.66 5 4 C5.33 5.65 5.66 7.3 6 9 C4.5 7.625 4.5 7.625 3 6 C3 5.34 3 4.68 3 4 C2.01 4 1.02 4 0 4 C0 2.68 0 1.36 0 0 Z " fill="#F1CFCE" transform="translate(525,187)"/>
<path d="M0 0 C1 2 1 2 1 6 C1.66 6.33 2.32 6.66 3 7 C3 9.97 3 12.94 3 16 C2.67 16 2.34 16 2 16 C2 13.36 2 10.72 2 8 C0.68 7.34 -0.64 6.68 -2 6 C-2 2 -2 2 0 0 Z " fill="#F5BEBD" transform="translate(491,176)"/>
<path d="M0 0 C0.66 0 1.32 0 2 0 C2.08090971 1.62418745 2.13914995 3.24951745 2.1875 4.875 C2.22230469 5.77992188 2.25710938 6.68484375 2.29296875 7.6171875 C2.19628906 8.40351563 2.09960938 9.18984375 2 10 C1.01 10.66 0.02 11.32 -1 12 C-1.33 11.34 -1.66 10.68 -2 10 C-1.34 10 -0.68 10 0 10 C-0.08378906 9.36191406 -0.16757812 8.72382813 -0.25390625 8.06640625 C-0.35574219 7.24011719 -0.45757812 6.41382813 -0.5625 5.5625 C-0.66691406 4.73878906 -0.77132813 3.91507813 -0.87890625 3.06640625 C-0.91886719 2.38449219 -0.95882813 1.70257813 -1 1 C-0.67 0.67 -0.34 0.34 0 0 Z " fill="#D35A59" transform="translate(489,167)"/>
<path d="M0 0 C5.75 1.875 5.75 1.875 8 3 C8 3.66 8 4.32 8 5 C10.475 5.99 10.475 5.99 13 7 C12.01 7.33 11.02 7.66 10 8 C6.22749021 6.1137451 2.69460741 4.32863268 0 1 C0 0.67 0 0.34 0 0 Z " fill="#F0BEC4" transform="translate(136,170)"/>
<path d="M0 0 C0.99 0.33 1.98 0.66 3 1 C3.33 2.98 3.66 4.96 4 7 C4.66 7 5.32 7 6 7 C5.67 8.65 5.34 10.3 5 12 C4.34 12 3.68 12 3 12 C2 8 1 4 0 0 Z " fill="#FAD6DD" transform="translate(127,121)"/>
<path d="M0 0 C0.66 0.33 1.32 0.66 2 1 C2.29296875 7.0546875 2.29296875 7.0546875 2 9 C1.01 9.66 0.02 10.32 -1 11 C-0.67 7.37 -0.34 3.74 0 0 Z " fill="#D35657" transform="translate(550,184)"/>
<path d="M0 0 C0.33 0 0.66 0 1 0 C1 1.65 1 3.3 1 5 C1.99 4.67 2.98 4.34 4 4 C3.34 5.98 2.68 7.96 2 10 C1.34 10 0.68 10 0 10 C0 9.01 0 8.02 0 7 C-0.99 6.67 -1.98 6.34 -3 6 C-2.34 5.67 -1.68 5.34 -1 5 C-0.34444881 2.47266765 -0.34444881 2.47266765 0 0 Z " fill="#E28989" transform="translate(632,170)"/>
<path d="M0 0 C1.485 0.99 1.485 0.99 3 2 C3.29296875 4.1640625 3.29296875 4.1640625 3.1875 6.625 C3.16042969 7.44226563 3.13335938 8.25953125 3.10546875 9.1015625 C3.07066406 9.72804687 3.03585937 10.35453125 3 11 C2.01 11.495 2.01 11.495 1 12 C0.67 8.04 0.34 4.08 0 0 Z " fill="#F7D0CC" transform="translate(667,168)"/>
<path d="M0 0 C1.32 0 2.64 0 4 0 C3.67 1.32 3.34 2.64 3 4 C0.03 4 -2.94 4 -6 4 C-4.68 3.34 -3.36 2.68 -2 2 C-1.34 1.34 -0.68 0.68 0 0 Z " fill="#929292" transform="translate(498,104)"/>
<path d="M0 0 C0.33 0 0.66 0 1 0 C1.33 2.64 1.66 5.28 2 8 C2.99 8.33 3.98 8.66 5 9 C5 9.99 5 10.98 5 12 C4.01 12.33 3.02 12.66 2 13 C2 12.01 2 11.02 2 10 C1.34 9.67 0.68 9.34 0 9 C0 6.03 0 3.06 0 0 Z " fill="#F9C9C7" transform="translate(615,168)"/>
<path d="M0 0 C1.27894091 2.55788182 0.77183056 3.29859303 0 6 C-0.34060811 7.66519519 -0.67558396 9.33157466 -1 11 C-1.33 10.01 -1.66 9.02 -2 8 C-2.66 8 -3.32 8 -4 8 C-2.87548273 5.0280615 -1.77706209 2.66559313 0 0 Z " fill="#E08D90" transform="translate(509,170)"/>
<path d="M0 0 C1.15392455 2.3078491 1.53437166 4.47230331 2 7 C1.01 7.33 0.02 7.66 -1 8 C-1 7.34 -1 6.68 -1 6 C-1.99 6 -2.98 6 -4 6 C-2.84826645 3.53199953 -1.95216435 1.95216435 0 0 Z " fill="#DF8684" transform="translate(404,188)"/>
<path d="M0 0 C0.99 0 1.98 0 3 0 C3.125 2.875 3.125 2.875 3 6 C2.34 6.66 1.68 7.32 1 8 C1 7.34 1 6.68 1 6 C0.34 6 -0.32 6 -1 6 C-0.67 4.02 -0.34 2.04 0 0 Z " fill="#D65B5A" transform="translate(635,186)"/>
<path d="M0 0 C0.33 0 0.66 0 1 0 C1.59732819 2.76264289 2 5.16032769 2 8 C1.01 9.485 1.01 9.485 0 11 C-2.21538462 4.6 -2.21538462 4.6 -1.125 1.5625 C-0.75375 1.046875 -0.3825 0.53125 0 0 Z " fill="#DE7B7C" transform="translate(597,184)"/>
<path d="M0 0 C0.66 0 1.32 0 2 0 C1.67 4.62 1.34 9.24 1 14 C0.67 14 0.34 14 0 14 C-0.19393875 11.85473901 -0.37998676 9.70876323 -0.5625 7.5625 C-0.71912109 5.77005859 -0.71912109 5.77005859 -0.87890625 3.94140625 C-0.91886719 2.97074219 -0.95882813 2.00007812 -1 1 C-0.67 0.67 -0.34 0.34 0 0 Z " fill="#E04B48" transform="translate(310,178)"/>
<path d="M0 0 C3.875 1.75 3.875 1.75 5 4 C5.039992 5.99960012 5.04346799 8.00047242 5 10 C4.34 9.01 3.68 8.02 3 7 C2.46375 6.34 1.9275 5.68 1.375 5 C0 3 0 3 0 0 Z " fill="#D05458" transform="translate(576,179)"/>
<path d="M0 0 C0.33 0 0.66 0 1 0 C1.05380578 2.79192205 1.09357669 5.5828141 1.125 8.375 C1.14175781 9.1690625 1.15851563 9.963125 1.17578125 10.78125 C1.19335473 12.85492015 1.10335168 14.92883241 1 17 C0.34 17.66 -0.32 18.32 -1 19 C-1.33 18.01 -1.66 17.02 -2 16 C-1.67 15.67 -1.34 15.34 -1 15 C-0.76346477 12.47403741 -0.57826308 9.96892793 -0.4375 7.4375 C-0.39431641 6.72658203 -0.35113281 6.01566406 -0.30664062 5.28320312 C-0.20028223 3.52238088 -0.09961154 1.7612168 0 0 Z " fill="#939395" transform="translate(477,95)"/>
<path d="M0 0 C1.09570312 0.00902344 2.19140625 0.01804688 3.3203125 0.02734375 C4.16335938 0.03894531 5.00640625 0.05054688 5.875 0.0625 C5.875 0.3925 5.875 0.7225 5.875 1.0625 C4.2926994 1.40070166 2.70910625 1.73285939 1.125 2.0625 C-0.19757812 2.3409375 -0.19757812 2.3409375 -1.546875 2.625 C-4.125 3.0625 -4.125 3.0625 -8.125 3.0625 C-8.125 2.4025 -8.125 1.7425 -8.125 1.0625 C-5.36047967 -0.31976016 -3.0788637 -0.03275387 0 0 Z " fill="#D27071" transform="translate(624.125,179.9375)"/>
<path d="M0 0 C2.64 0 5.28 0 8 0 C8.33 0.66 8.66 1.32 9 2 C5.7 2.33 2.4 2.66 -1 3 C-0.67 2.01 -0.34 1.02 0 0 Z " fill="#D75252" transform="translate(448,163)"/>
<path d="M0 0 C1.98 0.99 1.98 0.99 4 2 C4 4.31 4 6.62 4 9 C3.01 9.495 3.01 9.495 2 10 C1.34 6.7 0.68 3.4 0 0 Z " fill="#F5C0BB" transform="translate(456,167)"/>
<path d="M0 0 C2 1 2 1 2.875 3.3125 C3 6 3 6 1.0625 8.3125 C0.381875 8.869375 -0.29875 9.42625 -1 10 C-1 6.58900832 -0.50854594 3.36911686 0 0 Z " fill="#EDBBC1" transform="translate(170,163)"/>
<path d="M0 0 C0.99 0 1.98 0 3 0 C3 1.32 3 2.64 3 4 C2.34 4 1.68 4 1 4 C1 6.64 1 9.28 1 12 C0.67 12 0.34 12 0 12 C0 8.04 0 4.08 0 0 Z " fill="#868687" transform="translate(474,91)"/>
<path d="M0 0 C0.33 0 0.66 0 1 0 C1.21278058 4.46839215 0.59138085 7.82262526 -1 12 C-1.33 12 -1.66 12 -2 12 C-2.28571429 3.42857143 -2.28571429 3.42857143 0 0 Z " fill="#D75151" transform="translate(562,178)"/>
<path d="M0 0 C0 0.66 0 1.32 0 2 C0.66 2.33 1.32 2.66 2 3 C-1 5 -1 5 -4 5 C-4 3.68 -4 2.36 -4 1 C-2 0 -2 0 0 0 Z " fill="#CD7D7D" transform="translate(424,167)"/>
<path d="M0 0 C3.87132028 0.57352893 6.08172796 2.48704352 9 5 C7.68 5 6.36 5 5 5 C5 4.34 5 3.68 5 3 C3.35 3 1.7 3 0 3 C0 2.01 0 1.02 0 0 Z " fill="#CB6F7C" transform="translate(156,154)"/>
<path d="M0 0 C1.65 0 3.3 0 5 0 C5.33 1.65 5.66 3.3 6 5 C4.02 4.34 2.04 3.68 0 3 C0 2.01 0 1.02 0 0 Z " fill="#CF6676" transform="translate(112,144)"/>
<path d="M0 0 C0.66 0 1.32 0 2 0 C1.67 1.32 1.34 2.64 1 4 C-1.31 4 -3.62 4 -6 4 C-6 3.34 -6 2.68 -6 2 C-4.02 2 -2.04 2 0 2 C0 1.34 0 0.68 0 0 Z " fill="#DDDDDD" transform="translate(592,116)"/>
<path d="M0 0 C0.99 0 1.98 0 3 0 C2.38722388 2.96175123 1.74627478 4.38058783 0 7 C-0.66 7 -1.32 7 -2 7 C-1.34 4.69 -0.68 2.38 0 0 Z " fill="#C86664" transform="translate(504,178)"/>
<path d="M0 0 C2.97 0.33 5.94 0.66 9 1 C8.67 1.99 8.34 2.98 8 4 C2.25 2.25 2.25 2.25 0 0 Z " fill="#CD6876" transform="translate(134,168)"/>
<path d="M0 0 C1.98 0.99 1.98 0.99 4 2 C3.34 4.64 2.68 7.28 2 10 C1.67 10 1.34 10 1 10 C0.67 6.7 0.34 3.4 0 0 Z " fill="#D96366" transform="translate(410,166)"/>
<path d="M0 0 C2.4375 0.375 2.4375 0.375 5 1 C5.33 1.66 5.66 2.32 6 3 C4.68 2.67 3.36 2.34 2 2 C2.33 3.32 2.66 4.64 3 6 C1.5 4.6875 1.5 4.6875 0 3 C0 2.01 0 1.02 0 0 Z " fill="#D17275" transform="translate(530,191)"/>
<path d="M0 0 C0.99 0.33 1.98 0.66 3 1 C3 2.98 3 4.96 3 7 C2.01 7.495 2.01 7.495 1 8 C0.67 5.36 0.34 2.72 0 0 Z " fill="#CC5557" transform="translate(489,183)"/>
<path d="M0 0 C1.65 0 3.3 0 5 0 C4.42655063 2.86724686 4.1385485 3.8614515 2 6 C1.34 4.02 0.68 2.04 0 0 Z " fill="#FCE6E2" transform="translate(337,186)"/>
<path d="M0 0 C0.99 0.33 1.98 0.66 3 1 C1.37660195 2.70884005 -0.29319053 4.37446717 -2 6 C-2.66 6 -3.32 6 -4 6 C-4 5.01 -4 4.02 -4 3 C-2.68 3 -1.36 3 0 3 C0 2.01 0 1.02 0 0 Z " fill="#C86072" transform="translate(164,172)"/>
<path d="M0 0 C0.33 0.66 0.66 1.32 1 2 C1.99 1.67 2.98 1.34 4 1 C3.67 2.32 3.34 3.64 3 5 C1.68 5 0.36 5 -1 5 C-0.67 3.35 -0.34 1.7 0 0 Z " fill="#D47174" transform="translate(472,167)"/>
<path d="M0 0 C1.32 0.33 2.64 0.66 4 1 C4.33 2.65 4.66 4.3 5 6 C3.0625 5.25 3.0625 5.25 1 4 C0.25 1.875 0.25 1.875 0 0 Z " fill="#CD727E" transform="translate(119,153)"/>
<path d="M0 0 C1.32 0.33 2.64 0.66 4 1 C4 1.66 4 2.32 4 3 C6.97 3.495 6.97 3.495 10 4 C8.375 4.6875 8.375 4.6875 6 5 C2.75 3.5625 2.75 3.5625 0 2 C0 1.34 0 0.68 0 0 Z " fill="#F7C8CC" transform="translate(136,150)"/>
<path d="M0 0 C2.475 0.495 2.475 0.495 5 1 C5 1.99 5 2.98 5 4 C3.68 4 2.36 4 1 4 C0.67 2.68 0.34 1.36 0 0 Z " fill="#FBFBFB" transform="translate(436,108)"/>
</svg>
