<?xml version="1.0" standalone="no"?>
<!DOCTYPE svg PUBLIC "-//W3C//DTD SVG 20010904//EN"
 "http://www.w3.org/TR/2001/REC-SVG-20010904/DTD/svg10.dtd">
<svg version="1.0" xmlns="http://www.w3.org/2000/svg"
 width="1184.000000pt" height="592.000000pt" viewBox="0 0 1184.000000 592.000000"
 preserveAspectRatio="xMidYMid meet">

<g transform="translate(0.000000,592.000000) scale(0.100000,-0.100000)"
fill="#000000" stroke="none">
<path d="M2678 3899 c-87 -57 -85 -121 9 -274 106 -173 343 -355 462 -355 39
0 52 5 72 28 31 33 59 77 59 92 0 19 -43 57 -105 94 -69 41 -83 43 -126 17
-17 -11 -39 -17 -48 -13 -43 16 -102 67 -137 117 l-38 56 23 42 c19 35 21 47
12 70 -22 57 -101 157 -124 157 -7 0 -33 -14 -59 -31z"/>
<path d="M4911 3390 c-75 -76 -34 -190 69 -192 22 0 40 -3 40 -5 0 -3 -20 -34
-45 -69 -24 -35 -39 -64 -32 -64 19 0 30 11 72 75 22 33 43 62 46 65 18 15 39
74 39 111 0 33 -6 47 -34 75 -29 29 -41 34 -79 34 -37 0 -51 -5 -76 -30z m123
-11 c44 -21 46 -114 3 -144 -72 -50 -160 28 -122 109 21 45 67 58 119 35z"/>
<path d="M5198 3389 c-27 -17 -48 -35 -48 -40 0 -14 12 -11 49 12 18 11 35 18
38 15 2 -2 5 -73 6 -157 2 -112 5 -153 15 -156 9 -4 12 36 12 176 0 138 -3
181 -12 181 -7 0 -34 -14 -60 -31z"/>
<path d="M5548 3402 c-62 -38 -72 -121 -21 -174 21 -22 36 -28 70 -28 24 0 43
-3 43 -7 0 -5 -18 -34 -41 -67 -22 -32 -38 -60 -36 -62 11 -11 36 12 77 74 93
138 103 191 46 248 -27 27 -42 34 -72 34 -22 0 -51 -8 -66 -18z m119 -38 c22
-22 25 -32 20 -67 -7 -50 -36 -77 -81 -77 -53 0 -76 24 -76 79 0 60 26 91 76
91 24 0 43 -8 61 -26z"/>
<path d="M5828 3388 c-27 -16 -48 -34 -48 -39 0 -14 12 -11 48 11 18 11 35 20
37 20 2 0 6 -71 7 -157 2 -114 6 -157 16 -161 9 -3 12 37 12 177 0 139 -3 181
-12 180 -7 0 -34 -14 -60 -31z"/>
<path d="M6053 3410 c-21 -8 -63 -64 -63 -82 0 -19 31 -6 40 16 18 49 94 63
130 24 42 -45 24 -85 -93 -208 -43 -45 -75 -85 -72 -91 9 -13 212 -12 220 2
11 17 -1 22 -62 21 -32 0 -68 2 -81 4 l-23 5 25 27 c115 123 136 153 136 195
0 39 -15 64 -50 82 -32 17 -73 18 -107 5z"/>
<path d="M6319 3391 c-31 -32 -38 -61 -14 -61 8 0 15 6 15 14 0 22 40 46 76
46 38 0 64 -27 64 -67 0 -35 -17 -53 -61 -62 -42 -8 -41 -25 3 -32 52 -8 68
-25 68 -70 0 -46 -27 -69 -83 -69 -30 0 -44 7 -67 32 -34 37 -48 32 -28 -8 17
-36 52 -54 104 -54 100 0 148 114 69 166 -26 17 -26 17 -7 38 36 39 45 65 32
95 -26 64 -121 82 -171 32z"/>
<path d="M6643 3288 c-50 -73 -89 -136 -87 -140 3 -4 41 -8 85 -8 l79 0 0 -40
c0 -54 27 -56 32 -2 3 34 6 37 36 40 46 5 43 32 -3 32 l-35 0 0 125 c0 69 -3
125 -8 125 -4 0 -49 -59 -99 -132z m77 -28 l0 -90 -65 0 -65 0 18 28 c35 56
103 152 107 152 3 0 5 -40 5 -90z"/>
<path d="M6886 3374 c-3 -26 -6 -69 -6 -95 0 -55 11 -61 60 -33 44 26 94 12
115 -32 43 -92 -55 -165 -133 -99 -29 25 -52 32 -52 18 1 -28 67 -73 107 -73
114 0 166 132 79 202 -24 20 -88 23 -116 6 -10 -7 -22 -10 -25 -7 -3 3 -2 33
1 67 l7 62 78 0 c64 0 79 3 79 15 0 12 -17 15 -94 15 l-93 0 -7 -46z"/>
<path d="M7295 3412 c-13 -9 -93 -134 -117 -184 -22 -46 -22 -61 -2 -104 37
-78 148 -84 198 -12 47 66 -10 168 -93 168 -47 0 -48 -6 14 88 31 46 31 66 0
44z m43 -175 c7 -8 16 -33 19 -55 5 -35 2 -44 -22 -67 -23 -24 -32 -27 -68
-22 -50 7 -67 28 -67 83 0 34 5 47 27 64 31 24 85 22 111 -3z"/>
<path d="M7457 3414 c-16 -17 11 -24 88 -24 46 0 86 -4 90 -9 3 -5 -10 -40
-29 -78 -103 -207 -119 -249 -95 -241 17 6 169 315 169 344 0 11 -22 14 -108
14 -60 0 -112 -3 -115 -6z"/>
<path d="M7769 3391 c-34 -35 -37 -62 -9 -101 l20 -28 -30 -33 c-42 -47 -41
-90 4 -135 28 -28 42 -34 75 -34 57 0 100 24 117 66 18 44 10 78 -29 110 -28
24 -30 27 -14 38 15 12 37 56 37 76 0 4 -13 22 -29 39 -40 43 -100 44 -142 2z
m119 -13 c7 -7 12 -29 12 -49 0 -31 -4 -38 -28 -48 -71 -30 -133 38 -85 91 19
21 82 25 101 6z m16 -160 c17 -23 21 -75 8 -94 -12 -18 -49 -34 -79 -34 -59 0
-94 51 -72 107 14 37 25 43 81 43 37 0 50 -5 62 -22z"/>
<path d="M8079 3405 c-30 -16 -59 -70 -59 -109 0 -14 14 -41 31 -61 27 -30 37
-35 75 -35 24 0 44 -3 44 -6 0 -4 -20 -35 -46 -70 -38 -55 -42 -64 -25 -64 18
0 56 50 129 171 38 62 28 132 -22 167 -37 25 -88 28 -127 7z m116 -40 c54 -53
16 -145 -58 -145 -57 0 -83 37 -78 111 1 8 10 25 21 37 29 31 83 30 115 -3z"/>
<path d="M4670 3320 l0 -60 -61 0 c-81 0 -77 -24 4 -28 l57 -3 0 -60 c0 -81
24 -77 28 4 l3 57 54 0 c42 0 55 4 55 15 0 12 -13 15 -55 15 l-55 0 0 60 c0
47 -3 60 -15 60 -12 0 -15 -13 -15 -60z"/>
</g>
</svg>
